solid TR600_CYL_2
facet normal 1 0 0
 outer loop
  vertex -0.0984999 -0.00482087 -0.00574534
  vertex -0.0984999 -0.00256511 -0.0070477
  vertex -0.0984999 0.00482094 0.00574533
 endloop
endfacet
facet normal 1 0 0
 outer loop
  vertex -0.0984999 -0.00256511 -0.0070477
  vertex -0.0984999 3.9E-08 -0.0075
  vertex -0.0984999 0.00482094 0.00574533
 endloop
endfacet
facet normal 1 0 0
 outer loop
  vertex -0.0984999 0.00482094 0.00574533
  vertex -0.0984999 3.9E-08 -0.0075
  vertex -0.0984999 0.00649523 0.00375
 endloop
endfacet
facet normal 1 0 0
 outer loop
  vertex -0.0984999 3.9E-08 -0.0075
  vertex -0.0984999 0.0073861 0.00130236
  vertex -0.0984999 0.00649523 0.00375
 endloop
endfacet
facet normal 1 0 0
 outer loop
  vertex 0.1225 -0.00256507 0.0070477
  vertex 0.1225 -0.00482082 0.00574534
  vertex 0.1225 8.5E-08 0.0075
 endloop
endfacet
facet normal 1 0 0
 outer loop
  vertex 0.1225 -0.00482082 0.00574534
  vertex 0.1225 -0.0064951 0.00375
  vertex 0.1225 8.5E-08 0.0075
 endloop
endfacet
facet normal 1 0 0
 outer loop
  vertex 0.1225 8.5E-08 0.0075
  vertex 0.1225 -0.0064951 0.00375
  vertex 0.1225 0.00256524 0.0070477
 endloop
endfacet
facet normal 1 0 0
 outer loop
  vertex 0.1225 -0.0064951 0.00375
  vertex 0.1225 0.00482099 0.00574534
  vertex 0.1225 0.00256524 0.0070477
 endloop
endfacet
facet normal 1 0 0
 outer loop
  vertex 0.1225 -0.0064951 0.00375
  vertex 0.1225 -0.00738597 0.00130236
  vertex 0.1225 0.00649528 -0.00375
 endloop
endfacet
facet normal 1 0 0
 outer loop
  vertex 0.1225 -0.00738597 0.00130236
  vertex 0.1225 -0.00738597 -0.00130236
  vertex 0.1225 0.00649528 -0.00375
 endloop
endfacet
facet normal 1 0 0
 outer loop
  vertex 0.1225 0.00649528 -0.00375
  vertex 0.1225 -0.00738597 -0.00130236
  vertex 0.1225 -0.0064951 -0.00375
 endloop
endfacet
facet normal 1 0 0
 outer loop
  vertex -0.0984999 3.9E-08 -0.0075
  vertex -0.0984999 0.00256519 -0.0070477
  vertex -0.0984999 0.0073861 -0.00130236
 endloop
endfacet
facet normal 1 0 0
 outer loop
  vertex -0.0984999 0.00256519 -0.0070477
  vertex -0.0984999 0.00482095 -0.00574534
  vertex -0.0984999 0.0073861 -0.00130236
 endloop
endfacet
facet normal 1 0 0
 outer loop
  vertex -0.0984999 0.0073861 -0.00130236
  vertex -0.0984999 0.00482095 -0.00574534
  vertex -0.0984999 0.00649523 -0.00375
 endloop
endfacet
facet normal 1 0 0
 outer loop
  vertex 0.1225 -0.00256507 -0.00704769
  vertex 0.1225 8.5E-08 -0.0075
  vertex 0.1225 -0.00482082 -0.00574533
 endloop
endfacet
facet normal 1 0 0
 outer loop
  vertex 0.1225 8.5E-08 -0.0075
  vertex 0.1225 0.00256524 -0.00704769
  vertex 0.1225 -0.00482082 -0.00574533
 endloop
endfacet
facet normal 1 0 0
 outer loop
  vertex 0.1225 -0.00482082 -0.00574533
  vertex 0.1225 0.00256524 -0.00704769
  vertex 0.1225 0.00482099 -0.00574533
 endloop
endfacet
facet normal 1 0 0
 outer loop
  vertex -0.0984999 0.00256519 0.00704769
  vertex -0.0984999 3.9E-08 0.0075
  vertex -0.0984999 -0.00482087 -0.00574534
 endloop
endfacet
facet normal 1 0 0
 outer loop
  vertex -0.0984999 3.9E-08 0.0075
  vertex -0.0984999 -0.00256511 0.00704769
  vertex -0.0984999 -0.00482087 -0.00574534
 endloop
endfacet
facet normal 1 0 0
 outer loop
  vertex -0.0984999 -0.00482087 -0.00574534
  vertex -0.0984999 -0.00256511 0.00704769
  vertex -0.0984999 -0.00482087 0.00574533
 endloop
endfacet
facet normal 1 0 0
 outer loop
  vertex -0.0984999 -0.00738602 0.00130236
  vertex -0.0984999 -0.00738602 -0.00130236
  vertex -0.0984999 -0.00649515 0.00375
 endloop
endfacet
facet normal 1 0 0
 outer loop
  vertex -0.0984999 -0.00738602 -0.00130236
  vertex -0.0984999 -0.00649515 -0.00375
  vertex -0.0984999 -0.00649515 0.00375
 endloop
endfacet
facet normal 1 0 0
 outer loop
  vertex -0.0984999 -0.00649515 0.00375
  vertex -0.0984999 -0.00649515 -0.00375
  vertex -0.0984999 -0.00482087 0.00574533
 endloop
endfacet
facet normal 1 0 0
 outer loop
  vertex -0.0984999 -0.00649515 -0.00375
  vertex -0.0984999 -0.00482087 -0.00574534
  vertex -0.0984999 -0.00482087 0.00574533
 endloop
endfacet
facet normal 0 0 -1
 outer loop
  vertex 0.0858708 -0.023009 -0.06
  vertex 0.0837904 -0.0280315 -0.06
  vertex 0.0858708 0.023009 -0.06
 endloop
endfacet
facet normal 0 0 -1
 outer loop
  vertex 0.0837904 -0.0280315 -0.06
  vertex 0.0736802 0.0487629 -0.06
  vertex 0.0858708 0.023009 -0.06
 endloop
endfacet
facet normal 0 0 -1
 outer loop
  vertex 0.0858708 0.023009 -0.06
  vertex 0.0736802 0.0487629 -0.06
  vertex 0.0769897 0.04445 -0.06
 endloop
endfacet
facet normal -1 0 0
 outer loop
  vertex -0.1225 0.00649528 0.00375
  vertex -0.1225 0.00738614 0.00130236
  vertex -0.1225 -0.0064951 -0.00375
 endloop
endfacet
facet normal -1 0 0
 outer loop
  vertex -0.1225 0.00738614 0.00130236
  vertex -0.1225 0.00738614 -0.00130236
  vertex -0.1225 -0.0064951 -0.00375
 endloop
endfacet
facet normal -1 0 0
 outer loop
  vertex -0.1225 -0.0064951 -0.00375
  vertex -0.1225 0.00738614 -0.00130236
  vertex -0.1225 0.00649528 -0.00375
 endloop
endfacet
facet normal -1 0 0
 outer loop
  vertex -0.1225 0.00649528 -0.00375
  vertex -0.1225 0.00482099 -0.00574534
  vertex -0.1225 -0.0064951 -0.00375
 endloop
endfacet
facet normal -1 0 0
 outer loop
  vertex -0.1225 0.00482099 -0.00574534
  vertex -0.1225 0.00256524 -0.0070477
  vertex -0.1225 -0.0064951 -0.00375
 endloop
endfacet
facet normal -1 0 0
 outer loop
  vertex -0.1225 -0.0064951 -0.00375
  vertex -0.1225 0.00256524 -0.0070477
  vertex -0.1225 8.5E-08 -0.0075
 endloop
endfacet
facet normal -1 0 0
 outer loop
  vertex -0.1225 -0.0064951 -0.00375
  vertex -0.1225 -0.00738597 -0.00130236
  vertex -0.1225 0.00649528 0.00375
 endloop
endfacet
facet normal -1 0 0
 outer loop
  vertex -0.1225 -0.00738597 -0.00130236
  vertex -0.1225 -0.00738597 0.00130236
  vertex -0.1225 0.00649528 0.00375
 endloop
endfacet
facet normal -1 0 0
 outer loop
  vertex -0.1225 0.00649528 0.00375
  vertex -0.1225 -0.00738597 0.00130236
  vertex -0.1225 -0.0064951 0.00375
 endloop
endfacet
facet normal -1 0 0
 outer loop
  vertex -0.1225 -0.00256507 0.00704769
  vertex -0.1225 8.5E-08 0.0075
  vertex -0.1225 -0.00482082 0.00574533
 endloop
endfacet
facet normal -1 0 0
 outer loop
  vertex -0.1225 8.5E-08 0.0075
  vertex -0.1225 0.00256524 0.00704769
  vertex -0.1225 -0.00482082 0.00574533
 endloop
endfacet
facet normal -1 0 0
 outer loop
  vertex -0.1225 -0.00482082 0.00574533
  vertex -0.1225 0.00256524 0.00704769
  vertex -0.1225 0.00482099 0.00574533
 endloop
endfacet
facet normal 1 -2E-06 -6.66667E-07
 outer loop
  vertex -0.0899999 -0.0172341 -0.00303885
  vertex -0.0899999 -0.0151554 -0.00875
  vertex -0.0899999 0.0172342 0.00303884
 endloop
endfacet
facet normal 1 -2.66667E-06 3.33333E-07
 outer loop
  vertex -0.0899999 -0.0151554 -0.00875
  vertex -0.0899999 -0.0112488 -0.0134058
  vertex -0.0899999 0.0172342 0.00303884
 endloop
endfacet
facet normal 1 -2E-06 -3.33333E-07
 outer loop
  vertex -0.0899999 0.0172342 0.00303884
  vertex -0.0899999 -0.0112488 -0.0134058
  vertex -0.0899999 -0.00598533 -0.0164446
 endloop
endfacet
facet normal 1 -4E-06 2E-06
 outer loop
  vertex -0.0899999 0.0172342 -0.00303885
  vertex -0.0899999 -0.00598533 -0.0164446
  vertex -0.0899999 0.0151555 -0.00875
 endloop
endfacet
facet normal 1 -3.66667E-06 1E-06
 outer loop
  vertex -0.0899999 -0.00598533 -0.0164446
  vertex -0.0899999 2.2E-08 -0.0175
  vertex -0.0899999 0.0151555 -0.00875
 endloop
endfacet
facet normal 1 -7.33333E-06 5E-06
 outer loop
  vertex -0.0899999 0.0151555 -0.00875
  vertex -0.0899999 2.2E-08 -0.0175
  vertex -0.0899999 0.00598538 -0.0164446
 endloop
endfacet
facet normal 1 -2E-06 -6.66667E-07
 outer loop
  vertex -0.0899999 0.0172342 0.00303884
  vertex -0.0899999 0.0151555 0.00875
  vertex -0.0899999 -0.0172341 -0.00303885
 endloop
endfacet
facet normal 1 -2.33333E-06 1.33333E-06
 outer loop
  vertex -0.0899999 0.0151555 0.00875
  vertex -0.0899999 0.0112488 0.0134058
  vertex -0.0899999 -0.0172341 -0.00303885
 endloop
endfacet
facet normal 1 -2.33333E-06 1.66667E-06
 outer loop
  vertex -0.0899999 -0.0172341 -0.00303885
  vertex -0.0899999 0.0112488 0.0134058
  vertex -0.0899999 -0.0172341 0.00303884
 endloop
endfacet
facet normal 1 -2.66667E-06 3.33333E-06
 outer loop
  vertex -0.0899999 0.0112488 0.0134058
  vertex -0.0899999 -0.0151554 0.00875
  vertex -0.0899999 -0.0172341 0.00303884
 endloop
endfacet
facet normal 1 -1E-06 1.66667E-06
 outer loop
  vertex -0.0899999 2.2E-08 0.0175
  vertex -0.0899999 -0.00598533 0.0164446
  vertex -0.0899999 0.00598537 0.0164446
 endloop
endfacet
facet normal 1 -1.66667E-06 2.33333E-06
 outer loop
  vertex -0.0899999 -0.00598533 0.0164446
  vertex -0.0899999 -0.0112488 0.0134058
  vertex -0.0899999 0.00598537 0.0164446
 endloop
endfacet
facet normal 1 -2.66667E-06 4E-06
 outer loop
  vertex -0.0899999 0.00598537 0.0164446
  vertex -0.0899999 -0.0112488 0.0134058
  vertex -0.0899999 -0.0151554 0.00875
 endloop
endfacet
facet normal -1 3E-06 -1E-06
 outer loop
  vertex -0.0984999 0.0112488 -0.0134058
  vertex -0.0984999 0.00598539 -0.0164446
  vertex -0.0984999 0.00598539 0.0164446
 endloop
endfacet
facet normal -1 2.66667E-06 -6.66667E-07
 outer loop
  vertex -0.0984999 0.00598539 -0.0164446
  vertex -0.0984999 3.9E-08 -0.0175
  vertex -0.0984999 0.00598539 0.0164446
 endloop
endfacet
facet normal -1 2.33333E-06 -1.33333E-06
 outer loop
  vertex -0.0984999 0.00598539 0.0164446
  vertex -0.0984999 3.9E-08 -0.0175
  vertex -0.0984999 -0.00598531 -0.0164446
 endloop
endfacet
facet normal -1 2E-06 3.33333E-07
 outer loop
  vertex -0.0984999 0.0151555 0.00875
  vertex -0.0984999 0.0172342 0.00303884
  vertex -0.0984999 0.0112488 0.0134058
 endloop
endfacet
facet normal -1 2E-06 3.33333E-07
 outer loop
  vertex -0.0984999 0.0172342 0.00303884
  vertex -0.0984999 0.0172342 -0.00303885
  vertex -0.0984999 0.0112488 0.0134058
 endloop
endfacet
facet normal -1 2.33333E-06 0
 outer loop
  vertex -0.0984999 0.0112488 0.0134058
  vertex -0.0984999 0.0172342 -0.00303885
  vertex -0.0984999 0.0151555 -0.00875
 endloop
endfacet
facet normal -1 4E-06 -2E-06
 outer loop
  vertex -0.0984999 -0.00598531 -0.0164446
  vertex -0.0984999 -0.0112487 -0.0134058
  vertex -0.0984999 0.00598539 0.0164446
 endloop
endfacet
facet normal -1 2.66667E-06 -1.33333E-06
 outer loop
  vertex -0.0984999 -0.0112487 -0.0134058
  vertex -0.0984999 -0.0151554 -0.00875
  vertex -0.0984999 0.00598539 0.0164446
 endloop
endfacet
facet normal -1 1.33333E-06 -6.66667E-07
 outer loop
  vertex -0.0984999 0.00598539 0.0164446
  vertex -0.0984999 -0.0151554 -0.00875
  vertex -0.0984999 -0.0172341 -0.00303885
 endloop
endfacet
facet normal -1 1.33333E-06 -6.66667E-07
 outer loop
  vertex -0.0984999 -0.0172341 -0.00303885
  vertex -0.0984999 -0.0172341 0.00303884
  vertex -0.0984999 0.00598539 0.0164446
 endloop
endfacet
facet normal -1 1.66667E-06 -1.33333E-06
 outer loop
  vertex -0.0984999 -0.0172341 0.00303884
  vertex -0.0984999 -0.0151554 0.00875
  vertex -0.0984999 0.00598539 0.0164446
 endloop
endfacet
facet normal -1 2E-06 -2E-06
 outer loop
  vertex -0.0984999 0.00598539 0.0164446
  vertex -0.0984999 -0.0151554 0.00875
  vertex -0.0984999 -0.0112487 0.0134058
 endloop
endfacet
facet normal -1 -2E-06 6.66667E-07
 outer loop
  vertex 0.0899999 -0.0172341 0.00303885
  vertex 0.0899999 -0.0151554 0.00875
  vertex 0.0899999 0.0172342 -0.00303884
 endloop
endfacet
facet normal -1 -2.66667E-06 -3.33333E-07
 outer loop
  vertex 0.0899999 -0.0151554 0.00875
  vertex 0.0899999 -0.0112488 0.0134058
  vertex 0.0899999 0.0172342 -0.00303884
 endloop
endfacet
facet normal -1 -2E-06 3.33333E-07
 outer loop
  vertex 0.0899999 0.0172342 -0.00303884
  vertex 0.0899999 -0.0112488 0.0134058
  vertex 0.0899999 -0.00598533 0.0164446
 endloop
endfacet
facet normal -1 -4E-06 -2E-06
 outer loop
  vertex 0.0899999 0.0172342 0.00303885
  vertex 0.0899999 -0.00598533 0.0164446
  vertex 0.0899999 0.0151555 0.00875
 endloop
endfacet
facet normal -1 -3.66667E-06 -1E-06
 outer loop
  vertex 0.0899999 -0.00598533 0.0164446
  vertex 0.0899999 2.2E-08 0.0175
  vertex 0.0899999 0.0151555 0.00875
 endloop
endfacet
facet normal -1 -7.33333E-06 -5E-06
 outer loop
  vertex 0.0899999 0.0151555 0.00875
  vertex 0.0899999 2.2E-08 0.0175
  vertex 0.0899999 0.00598538 0.0164446
 endloop
endfacet
facet normal -1 -2E-06 6.66667E-07
 outer loop
  vertex 0.0899999 0.0172342 -0.00303884
  vertex 0.0899999 0.0151555 -0.00875
  vertex 0.0899999 -0.0172341 0.00303885
 endloop
endfacet
facet normal -1 -2.33333E-06 -1.33333E-06
 outer loop
  vertex 0.0899999 0.0151555 -0.00875
  vertex 0.0899999 0.0112488 -0.0134058
  vertex 0.0899999 -0.0172341 0.00303885
 endloop
endfacet
facet normal -1 -2.33333E-06 -1.66667E-06
 outer loop
  vertex 0.0899999 -0.0172341 0.00303885
  vertex 0.0899999 0.0112488 -0.0134058
  vertex 0.0899999 -0.0172341 -0.00303884
 endloop
endfacet
facet normal -1 -2.66667E-06 -3.33333E-06
 outer loop
  vertex 0.0899999 0.0112488 -0.0134058
  vertex 0.0899999 -0.0151554 -0.00875
  vertex 0.0899999 -0.0172341 -0.00303884
 endloop
endfacet
facet normal -1 -1E-06 -1.66667E-06
 outer loop
  vertex 0.0899999 2.2E-08 -0.0175
  vertex 0.0899999 -0.00598533 -0.0164446
  vertex 0.0899999 0.00598537 -0.0164446
 endloop
endfacet
facet normal -1 -1.66667E-06 -2.33333E-06
 outer loop
  vertex 0.0899999 -0.00598533 -0.0164446
  vertex 0.0899999 -0.0112488 -0.0134058
  vertex 0.0899999 0.00598537 -0.0164446
 endloop
endfacet
facet normal -1 -2.66667E-06 -4E-06
 outer loop
  vertex 0.0899999 0.00598537 -0.0164446
  vertex 0.0899999 -0.0112488 -0.0134058
  vertex 0.0899999 -0.0151554 -0.00875
 endloop
endfacet
facet normal 1 3E-06 1E-06
 outer loop
  vertex 0.0984999 0.0112488 0.0134058
  vertex 0.0984999 0.00598539 0.0164446
  vertex 0.0984999 0.00598539 -0.0164446
 endloop
endfacet
facet normal 1 2.66667E-06 6.66667E-07
 outer loop
  vertex 0.0984999 0.00598539 0.0164446
  vertex 0.0984999 3.9E-08 0.0175
  vertex 0.0984999 0.00598539 -0.0164446
 endloop
endfacet
facet normal 1 2.33333E-06 1.33333E-06
 outer loop
  vertex 0.0984999 0.00598539 -0.0164446
  vertex 0.0984999 3.9E-08 0.0175
  vertex 0.0984999 -0.00598531 0.0164446
 endloop
endfacet
facet normal 1 2E-06 -3.33333E-07
 outer loop
  vertex 0.0984999 0.0151555 -0.00875
  vertex 0.0984999 0.0172342 -0.00303884
  vertex 0.0984999 0.0112488 -0.0134058
 endloop
endfacet
facet normal 1 2E-06 -3.33333E-07
 outer loop
  vertex 0.0984999 0.0172342 -0.00303884
  vertex 0.0984999 0.0172342 0.00303885
  vertex 0.0984999 0.0112488 -0.0134058
 endloop
endfacet
facet normal 1 2.33333E-06 0
 outer loop
  vertex 0.0984999 0.0112488 -0.0134058
  vertex 0.0984999 0.0172342 0.00303885
  vertex 0.0984999 0.0151555 0.00875
 endloop
endfacet
facet normal 0 0 1
 outer loop
  vertex 0.0769897 0.04445 0.06
  vertex 0.0736802 0.0487629 0.06
  vertex 0.0858708 0.023009 0.06
 endloop
endfacet
facet normal 0 0 1
 outer loop
  vertex 0.0736802 0.0487629 0.06
  vertex 0.0837904 -0.0280315 0.06
  vertex 0.0858708 0.023009 0.06
 endloop
endfacet
facet normal 0 0 1
 outer loop
  vertex 0.0858708 0.023009 0.06
  vertex 0.0837904 -0.0280315 0.06
  vertex 0.0858708 -0.023009 0.06
 endloop
endfacet
facet normal 1 4E-06 2E-06
 outer loop
  vertex 0.0984999 -0.00598531 0.0164446
  vertex 0.0984999 -0.0112487 0.0134058
  vertex 0.0984999 0.00598539 -0.0164446
 endloop
endfacet
facet normal 1 2.66667E-06 1.33333E-06
 outer loop
  vertex 0.0984999 -0.0112487 0.0134058
  vertex 0.0984999 -0.0151554 0.00875
  vertex 0.0984999 0.00598539 -0.0164446
 endloop
endfacet
facet normal 1 1.33333E-06 6.66667E-07
 outer loop
  vertex 0.0984999 0.00598539 -0.0164446
  vertex 0.0984999 -0.0151554 0.00875
  vertex 0.0984999 -0.0172341 0.00303885
 endloop
endfacet
facet normal 1 1.33333E-06 6.66667E-07
 outer loop
  vertex 0.0984999 -0.0172341 0.00303885
  vertex 0.0984999 -0.0172341 -0.00303884
  vertex 0.0984999 0.00598539 -0.0164446
 endloop
endfacet
facet normal 1 1.66667E-06 1.33333E-06
 outer loop
  vertex 0.0984999 -0.0172341 -0.00303884
  vertex 0.0984999 -0.0151554 -0.00875
  vertex 0.0984999 0.00598539 -0.0164446
 endloop
endfacet
facet normal 1 2E-06 2E-06
 outer loop
  vertex 0.0984999 0.00598539 -0.0164446
  vertex 0.0984999 -0.0151554 -0.00875
  vertex 0.0984999 -0.0112487 -0.0134058
 endloop
endfacet
facet normal -1 0 0
 outer loop
  vertex 0.0984999 -0.00482087 0.00574534
  vertex 0.0984999 -0.00256511 0.0070477
  vertex 0.0984999 0.00482094 -0.00574533
 endloop
endfacet
facet normal -1 0 0
 outer loop
  vertex 0.0984999 -0.00256511 0.0070477
  vertex 0.0984999 3.9E-08 0.0075
  vertex 0.0984999 0.00482094 -0.00574533
 endloop
endfacet
facet normal -1 0 0
 outer loop
  vertex 0.0984999 0.00482094 -0.00574533
  vertex 0.0984999 3.9E-08 0.0075
  vertex 0.0984999 0.00649523 -0.00375
 endloop
endfacet
facet normal -1 0 0
 outer loop
  vertex 0.0984999 3.9E-08 0.0075
  vertex 0.0984999 0.0073861 -0.00130236
  vertex 0.0984999 0.00649523 -0.00375
 endloop
endfacet
facet normal -1 0 0
 outer loop
  vertex 0.0984999 3.9E-08 0.0075
  vertex 0.0984999 0.00256519 0.0070477
  vertex 0.0984999 0.0073861 0.00130236
 endloop
endfacet
facet normal -1 0 0
 outer loop
  vertex 0.0984999 0.00256519 0.0070477
  vertex 0.0984999 0.00482095 0.00574534
  vertex 0.0984999 0.0073861 0.00130236
 endloop
endfacet
facet normal -1 0 0
 outer loop
  vertex 0.0984999 0.0073861 0.00130236
  vertex 0.0984999 0.00482095 0.00574534
  vertex 0.0984999 0.00649523 0.00375
 endloop
endfacet
facet normal -1 0 0
 outer loop
  vertex 0.0984999 0.00256519 -0.00704769
  vertex 0.0984999 3.9E-08 -0.0075
  vertex 0.0984999 -0.00482087 0.00574534
 endloop
endfacet
facet normal -1 0 0
 outer loop
  vertex 0.0984999 3.9E-08 -0.0075
  vertex 0.0984999 -0.00256511 -0.00704769
  vertex 0.0984999 -0.00482087 0.00574534
 endloop
endfacet
facet normal -1 0 0
 outer loop
  vertex 0.0984999 -0.00482087 0.00574534
  vertex 0.0984999 -0.00256511 -0.00704769
  vertex 0.0984999 -0.00482087 -0.00574533
 endloop
endfacet
facet normal -1 0 0
 outer loop
  vertex 0.0984999 -0.00738602 -0.00130236
  vertex 0.0984999 -0.00738602 0.00130236
  vertex 0.0984999 -0.00649515 -0.00375
 endloop
endfacet
facet normal -1 0 0
 outer loop
  vertex 0.0984999 -0.00738602 0.00130236
  vertex 0.0984999 -0.00649515 0.00375
  vertex 0.0984999 -0.00649515 -0.00375
 endloop
endfacet
facet normal -1 0 0
 outer loop
  vertex 0.0984999 -0.00649515 -0.00375
  vertex 0.0984999 -0.00649515 0.00375
  vertex 0.0984999 -0.00482087 -0.00574533
 endloop
endfacet
facet normal -1 0 0
 outer loop
  vertex 0.0984999 -0.00649515 0.00375
  vertex 0.0984999 -0.00482087 0.00574534
  vertex 0.0984999 -0.00482087 -0.00574533
 endloop
endfacet
facet normal 1 0 0
 outer loop
  vertex 0.1225 0.00649528 -0.00375
  vertex 0.1225 0.00738614 -0.00130236
  vertex 0.1225 -0.0064951 0.00375
 endloop
endfacet
facet normal 1 0 0
 outer loop
  vertex 0.1225 0.00738614 -0.00130236
  vertex 0.1225 0.00738614 0.00130236
  vertex 0.1225 -0.0064951 0.00375
 endloop
endfacet
facet normal 1 0 0
 outer loop
  vertex 0.1225 -0.0064951 0.00375
  vertex 0.1225 0.00738614 0.00130236
  vertex 0.1225 0.00649528 0.00375
 endloop
endfacet
facet normal 0 0 1
 outer loop
  vertex 0.04005 -0.0693686 0.06
  vertex 0.0661712 -0.0585489 0.06
  vertex 0.0744417 -0.042979 0.06
 endloop
endfacet
facet normal 0 0 1
 outer loop
  vertex 0.0661712 -0.0585489 0.06
  vertex 0.0736802 -0.0487629 0.06
  vertex 0.0744417 -0.042979 0.06
 endloop
endfacet
facet normal 0 0 -1
 outer loop
  vertex 0.04005 -0.0693686 -0.06
  vertex 0.0744417 -0.042979 -0.06
  vertex 0.0661712 -0.0585489 -0.06
 endloop
endfacet
facet normal 0 0 -1
 outer loop
  vertex 0.0744417 -0.042979 -0.06
  vertex 0.0736802 -0.0487629 -0.06
  vertex 0.0661712 -0.0585489 -0.06
 endloop
endfacet
facet normal -0.793353 -0.608762 0
 outer loop
  vertex -0.0769897 -0.04445 -0.06
  vertex -0.0628618 -0.0628618 -0.06
  vertex -0.0769897 -0.04445 0.06
 endloop
endfacet
facet normal -0.793353 -0.608761 0
 outer loop
  vertex -0.0628618 -0.0628618 -0.06
  vertex -0.0628618 -0.0628618 0.06
  vertex -0.0769897 -0.04445 0.06
 endloop
endfacet
facet normal 0 0 -1
 outer loop
  vertex 0.0487629 -0.0736802 -0.06
  vertex 0.0207314 -0.0773707 -0.06
  vertex 0.0628618 -0.0628618 -0.06
 endloop
endfacet
facet normal 0 0 -1
 outer loop
  vertex 0.0207314 -0.0773707 -0.06
  vertex 0.0661712 -0.0585489 -0.06
  vertex 0.0628618 -0.0628618 -0.06
 endloop
endfacet
facet normal 0.92388 0.382683 0
 outer loop
  vertex 0.0769897 0.04445 -0.06
  vertex 0.0769897 0.04445 0.06
  vertex 0.0858708 0.023009 -0.06
 endloop
endfacet
facet normal 0.92388 0.382683 0
 outer loop
  vertex 0.0769897 0.04445 0.06
  vertex 0.0858708 0.023009 0.06
  vertex 0.0858708 0.023009 -0.06
 endloop
endfacet
facet normal 0.991445 0.130526 0
 outer loop
  vertex 0.0889 0 0.06
  vertex 0.0889 0 -0.06
  vertex 0.0858708 0.023009 0.06
 endloop
endfacet
facet normal 0.991445 0.130526 0
 outer loop
  vertex 0.0889 0 -0.06
  vertex 0.0858708 0.023009 -0.06
  vertex 0.0858708 0.023009 0.06
 endloop
endfacet
facet normal 0.991445 -0.130526 0
 outer loop
  vertex 0.0858708 -0.023009 -0.06
  vertex 0.0889 0 -0.06
  vertex 0.0858708 -0.023009 0.06
 endloop
endfacet
facet normal 0.991445 -0.130526 0
 outer loop
  vertex 0.0889 0 -0.06
  vertex 0.0889 0 0.06
  vertex 0.0858708 -0.023009 0.06
 endloop
endfacet
facet normal -1 -2E-06 0
 outer loop
  vertex 0.0789 -0.029 -0.03
  vertex 0.0789 -0.029 0.03
  vertex 0.0788998 0.029 -0.03
 endloop
endfacet
facet normal -1 -2E-06 0
 outer loop
  vertex 0.0789 -0.029 0.03
  vertex 0.0788998 0.029 0.03
  vertex 0.0788998 0.029 -0.03
 endloop
endfacet
facet normal -0.991445 0.130526 0
 outer loop
  vertex 0.0801 0 -0.06
  vertex 0.0773707 -0.0207314 -0.06
  vertex 0.0801 0 0.06
 endloop
endfacet
facet normal -0.991445 0.130526 0
 outer loop
  vertex 0.0773707 -0.0207314 -0.06
  vertex 0.0773707 -0.0207314 0.06
  vertex 0.0801 0 0.06
 endloop
endfacet
facet normal 0 0 -1
 outer loop
  vertex 0.00538981 -0.0881904 -0.06
  vertex 0 -0.0889 -0.06
  vertex -0.04005 -0.0693686 -0.06
 endloop
endfacet
facet normal 0 0 -1
 outer loop
  vertex 0 -0.0889 -0.06
  vertex -0.0176192 -0.0865804 -0.06
  vertex -0.04005 -0.0693686 -0.06
 endloop
endfacet
facet normal -0.991445 0.130526 0
 outer loop
  vertex -0.0858708 0.023009 0.06
  vertex -0.0858708 0.023009 -0.06
  vertex -0.0889 0 0.06
 endloop
endfacet
facet normal -0.991445 0.130526 0
 outer loop
  vertex -0.0858708 0.023009 -0.06
  vertex -0.0889 0 -0.06
  vertex -0.0889 0 0.06
 endloop
endfacet
facet normal 0 0 -1
 outer loop
  vertex 0.0788998 0.029 -0.03
  vertex 0.0798998 0.029 -0.03
  vertex 0.0789 -0.029 -0.03
 endloop
endfacet
facet normal 0 0 -1
 outer loop
  vertex 0.0798998 0.029 -0.03
  vertex 0.0799 -0.029 -0.03
  vertex 0.0789 -0.029 -0.03
 endloop
endfacet
facet normal 0.793353 0.608761 0
 outer loop
  vertex 0.0628618 0.0628618 -0.06
  vertex 0.0628618 0.0628618 0.06
  vertex 0.0769897 0.04445 -0.06
 endloop
endfacet
facet normal 0.793353 0.608761 0
 outer loop
  vertex 0.0628618 0.0628618 0.06
  vertex 0.0769897 0.04445 0.06
  vertex 0.0769897 0.04445 -0.06
 endloop
endfacet
facet normal -0.793353 0.608762 0
 outer loop
  vertex 0.0566393 -0.0566393 -0.06
  vertex 0.0566392 -0.0566393 0.06
  vertex 0.0693686 -0.04005 -0.06
 endloop
endfacet
facet normal -0.793353 0.608762 0
 outer loop
  vertex 0.0566392 -0.0566393 0.06
  vertex 0.0693686 -0.04005 0.06
  vertex 0.0693686 -0.04005 -0.06
 endloop
endfacet
facet normal 0.608761 -0.793353 0
 outer loop
  vertex 0.0628618 -0.0628618 0.06
  vertex 0.04445 -0.0769897 0.06
  vertex 0.0628618 -0.0628618 -0.06
 endloop
endfacet
facet normal 0.608761 -0.793353 0
 outer loop
  vertex 0.04445 -0.0769897 0.06
  vertex 0.04445 -0.0769897 -0.06
  vertex 0.0628618 -0.0628618 -0.06
 endloop
endfacet
facet normal 0 0 1
 outer loop
  vertex 0.0799 -0.029 0.03
  vertex 0.0798998 0.029 0.03
  vertex 0.0789 -0.029 0.03
 endloop
endfacet
facet normal 0 0 1
 outer loop
  vertex 0.0798998 0.029 0.03
  vertex 0.0788998 0.029 0.03
  vertex 0.0789 -0.029 0.03
 endloop
endfacet
facet normal -0.923879 -0.382684 0
 outer loop
  vertex 0.0693686 0.04005 0.06
  vertex 0.0693686 0.04005 -0.06
  vertex 0.0773707 0.0207314 0.06
 endloop
endfacet
facet normal -0.923879 -0.382684 0
 outer loop
  vertex 0.0693686 0.04005 -0.06
  vertex 0.0773707 0.0207314 -0.06
  vertex 0.0773707 0.0207314 0.06
 endloop
endfacet
facet normal -0.130526 -0.991445 0
 outer loop
  vertex 0.0207314 0.0773707 0.06
  vertex 0 0.0801 0.06
  vertex 0.0207314 0.0773707 -0.06
 endloop
endfacet
facet normal -0.130526 -0.991445 0
 outer loop
  vertex 0 0.0801 0.06
  vertex 0 0.0801 -0.06
  vertex 0.0207314 0.0773707 -0.06
 endloop
endfacet
facet normal 0.382684 -0.923879 0
 outer loop
  vertex 0.023009 -0.0858708 -0.06
  vertex 0.04445 -0.0769897 -0.06
  vertex 0.023009 -0.0858708 0.06
 endloop
endfacet
facet normal 0.382684 -0.923879 0
 outer loop
  vertex 0.04445 -0.0769897 -0.06
  vertex 0.04445 -0.0769897 0.06
  vertex 0.023009 -0.0858708 0.06
 endloop
endfacet
facet normal -0.92388 0.382683 0
 outer loop
  vertex 0.0693686 -0.04005 0.06
  vertex 0.0773707 -0.0207314 0.06
  vertex 0.0693686 -0.04005 -0.06
 endloop
endfacet
facet normal -0.92388 0.382683 0
 outer loop
  vertex 0.0773707 -0.0207314 0.06
  vertex 0.0773707 -0.0207314 -0.06
  vertex 0.0693686 -0.04005 -0.06
 endloop
endfacet
facet normal -0.92388 -0.382683 0
 outer loop
  vertex -0.0769897 -0.04445 -0.06
  vertex -0.0769897 -0.04445 0.06
  vertex -0.0858708 -0.023009 -0.06
 endloop
endfacet
facet normal -0.92388 -0.382683 0
 outer loop
  vertex -0.0769897 -0.04445 0.06
  vertex -0.0858708 -0.023009 0.06
  vertex -0.0858708 -0.023009 -0.06
 endloop
endfacet
facet normal 0 -0.173648 -0.984808
 outer loop
  vertex 0.0984999 3.9E-08 -0.0075
  vertex 0.1225 8.5E-08 -0.0075
  vertex 0.0984999 -0.00256511 -0.00704769
 endloop
endfacet
facet normal 0 -0.173648 -0.984808
 outer loop
  vertex 0.1225 8.5E-08 -0.0075
  vertex 0.1225 -0.00256507 -0.00704769
  vertex 0.0984999 -0.00256511 -0.00704769
 endloop
endfacet
facet normal 0 0 1
 outer loop
  vertex -0.0394275 -0.0790701 0.06
  vertex -0.0693686 -0.04005 0.06
  vertex -0.04445 -0.0769897 0.06
 endloop
endfacet
facet normal 0 0 1
 outer loop
  vertex -0.0693686 -0.04005 0.06
  vertex -0.0585489 -0.0661712 0.06
  vertex -0.04445 -0.0769897 0.06
 endloop
endfacet
facet normal 0 0 -1
 outer loop
  vertex 0.0736802 0.0487629 -0.06
  vertex 0.0773707 0.0207314 -0.06
  vertex 0.0628618 0.0628618 -0.06
 endloop
endfacet
facet normal 0 0 -1
 outer loop
  vertex 0.0773707 0.0207314 -0.06
  vertex 0.0585489 0.0661712 -0.06
  vertex 0.0628618 0.0628618 -0.06
 endloop
endfacet
facet normal -0.382683 0.92388 0
 outer loop
  vertex 0.04005 -0.0693686 0.06
  vertex 0.04005 -0.0693686 -0.06
  vertex 0.0207314 -0.0773707 0.06
 endloop
endfacet
facet normal -0.382683 0.92388 0
 outer loop
  vertex 0.04005 -0.0693686 -0.06
  vertex 0.0207314 -0.0773707 -0.06
  vertex 0.0207314 -0.0773707 0.06
 endloop
endfacet
facet normal 2E-06 1 0
 outer loop
  vertex -0.0984999 0.0172342 0.00303884
  vertex -0.0899999 0.0172342 0.00303884
  vertex -0.0984999 0.0172342 -0.00303885
 endloop
endfacet
facet normal 2E-06 1 0
 outer loop
  vertex -0.0899999 0.0172342 0.00303884
  vertex -0.0899999 0.0172342 -0.00303885
  vertex -0.0984999 0.0172342 -0.00303885
 endloop
endfacet
facet normal 0.130526 0.991445 0
 outer loop
  vertex 0.023009 0.0858708 -0.06
  vertex 0 0.0889 -0.06
  vertex 0.023009 0.0858708 0.06
 endloop
endfacet
facet normal 0.130526 0.991445 0
 outer loop
  vertex 0 0.0889 -0.06
  vertex 0 0.0889 0.06
  vertex 0.023009 0.0858708 0.06
 endloop
endfacet
facet normal 0 0 -1
 outer loop
  vertex 0.0736802 -0.0487629 -0.06
  vertex 0.0801 0 -0.06
  vertex 0.0769897 -0.04445 -0.06
 endloop
endfacet
facet normal 0 0 -1
 outer loop
  vertex 0.0801 0 -0.06
  vertex 0.0837904 -0.0280315 -0.06
  vertex 0.0769897 -0.04445 -0.06
 endloop
endfacet
facet normal 0.382683 0.92388 0
 outer loop
  vertex 0.023009 0.0858708 -0.06
  vertex 0.023009 0.0858708 0.06
  vertex 0.04445 0.0769897 -0.06
 endloop
endfacet
facet normal 0.382683 0.92388 0
 outer loop
  vertex 0.023009 0.0858708 0.06
  vertex 0.04445 0.0769897 0.06
  vertex 0.04445 0.0769897 -0.06
 endloop
endfacet
facet normal -0.130526 0.991445 0
 outer loop
  vertex 0 -0.0801 -0.06
  vertex 0 -0.0801 0.06
  vertex 0.0207314 -0.0773707 -0.06
 endloop
endfacet
facet normal -0.130526 0.991445 0
 outer loop
  vertex 0 -0.0801 0.06
  vertex 0.0207314 -0.0773707 0.06
  vertex 0.0207314 -0.0773707 -0.06
 endloop
endfacet
facet normal -0.382683 -0.92388 0
 outer loop
  vertex -0.023009 -0.0858708 -0.06
  vertex -0.023009 -0.0858708 0.06
  vertex -0.04445 -0.0769897 -0.06
 endloop
endfacet
facet normal -0.382684 -0.923879 0
 outer loop
  vertex -0.023009 -0.0858708 0.06
  vertex -0.04445 -0.0769897 0.06
  vertex -0.04445 -0.0769897 -0.06
 endloop
endfacet
facet normal 0 0 -1
 outer loop
  vertex 0.0585489 0.0661712 -0.06
  vertex 0.0693686 0.04005 -0.06
  vertex 0.04445 0.0769897 -0.06
 endloop
endfacet
facet normal 0 0 -1
 outer loop
  vertex 0.0693686 0.04005 -0.06
  vertex 0.0394275 0.07907 -0.06
  vertex 0.04445 0.0769897 -0.06
 endloop
endfacet
facet normal 0.130526 0.991445 0
 outer loop
  vertex 0 -0.0801 -0.06
  vertex -0.0207314 -0.0773707 -0.06
  vertex 0 -0.0801 0.06
 endloop
endfacet
facet normal 0.130526 0.991445 0
 outer loop
  vertex -0.0207314 -0.0773707 -0.06
  vertex -0.0207314 -0.0773707 0.06
  vertex 0 -0.0801 0.06
 endloop
endfacet
facet normal -2E-06 -1 0
 outer loop
  vertex -0.09 -0.04 -0.04
  vertex -0.0799 -0.04 -0.04
  vertex -0.09 -0.04 0.04
 endloop
endfacet
facet normal -2E-06 -1 0
 outer loop
  vertex -0.0799 -0.04 -0.04
  vertex -0.0799 -0.04 0.04
  vertex -0.09 -0.04 0.04
 endloop
endfacet
facet normal 0 0 1
 outer loop
  vertex 0.0837904 -0.0280315 0.06
  vertex 0.0801 0 0.06
  vertex 0.0769897 -0.04445 0.06
 endloop
endfacet
facet normal 0 0 1
 outer loop
  vertex 0.0801 0 0.06
  vertex 0.0736802 -0.0487629 0.06
  vertex 0.0769897 -0.04445 0.06
 endloop
endfacet
facet normal -0.608761 0.793353 0
 outer loop
  vertex 0.04005 -0.0693686 -0.06
  vertex 0.04005 -0.0693686 0.06
  vertex 0.0566393 -0.0566393 -0.06
 endloop
endfacet
facet normal -0.608761 0.793353 0
 outer loop
  vertex 0.04005 -0.0693686 0.06
  vertex 0.0566392 -0.0566393 0.06
  vertex 0.0566393 -0.0566393 -0.06
 endloop
endfacet
facet normal 2E-06 1 0
 outer loop
  vertex -0.0798998 0.04 -0.04
  vertex -0.0899998 0.04 -0.04
  vertex -0.0798998 0.04 0.04
 endloop
endfacet
facet normal 2E-06 1 0
 outer loop
  vertex -0.0899998 0.04 -0.04
  vertex -0.0899998 0.04 0.04
  vertex -0.0798998 0.04 0.04
 endloop
endfacet
facet normal -1 -2E-06 0
 outer loop
  vertex 0.0798998 0.04 0.04
  vertex 0.0798998 0.04 -0.04
  vertex 0.0799 -0.04 0.04
 endloop
endfacet
facet normal -1 -2E-06 0
 outer loop
  vertex 0.0798998 0.04 -0.04
  vertex 0.0799 -0.04 -0.04
  vertex 0.0799 -0.04 0.04
 endloop
endfacet
facet normal 0.92388 -0.382683 0
 outer loop
  vertex 0.0769897 -0.04445 0.06
  vertex 0.0769897 -0.04445 -0.06
  vertex 0.0858708 -0.023009 0.06
 endloop
endfacet
facet normal 0.92388 -0.382683 0
 outer loop
  vertex 0.0769897 -0.04445 -0.06
  vertex 0.0858708 -0.023009 -0.06
  vertex 0.0858708 -0.023009 0.06
 endloop
endfacet
facet normal 0 0 -1
 outer loop
  vertex 0.0176192 0.0865804 -0.06
  vertex 0.04005 0.0693686 -0.06
  vertex 0 0.0889 -0.06
 endloop
endfacet
facet normal 0 0 -1
 outer loop
  vertex 0.04005 0.0693686 -0.06
  vertex -0.00538981 0.0881904 -0.06
  vertex 0 0.0889 -0.06
 endloop
endfacet
facet normal 0.608762 0.793353 0
 outer loop
  vertex -0.04005 -0.0693686 0.06
  vertex -0.04005 -0.0693686 -0.06
  vertex -0.0566393 -0.0566392 0.06
 endloop
endfacet
facet normal 0.608762 0.793353 0
 outer loop
  vertex -0.04005 -0.0693686 -0.06
  vertex -0.0566392 -0.0566392 -0.06
  vertex -0.0566393 -0.0566392 0.06
 endloop
endfacet
facet normal 0 0 1
 outer loop
  vertex 0.0798998 0.04 0.04
  vertex 0.0799 -0.04 0.04
  vertex 0.0899998 0.04 0.04
 endloop
endfacet
facet normal 0 0 1
 outer loop
  vertex 0.0799 -0.04 0.04
  vertex 0.09 -0.04 0.04
  vertex 0.0899998 0.04 0.04
 endloop
endfacet
facet normal -0.382683 0.92388 0
 outer loop
  vertex -0.023009 0.0858708 0.06
  vertex -0.023009 0.0858708 -0.06
  vertex -0.04445 0.0769897 0.06
 endloop
endfacet
facet normal -0.382683 0.92388 0
 outer loop
  vertex -0.023009 0.0858708 -0.06
  vertex -0.04445 0.0769897 -0.06
  vertex -0.04445 0.0769897 0.06
 endloop
endfacet
facet normal 0 0 -1
 outer loop
  vertex -0.00538981 0.0881904 -0.06
  vertex 0.0207314 0.0773707 -0.06
  vertex -0.023009 0.0858708 -0.06
 endloop
endfacet
facet normal 0 0 -1
 outer loop
  vertex 0.0207314 0.0773707 -0.06
  vertex -0.0280315 0.0837904 -0.06
  vertex -0.023009 0.0858708 -0.06
 endloop
endfacet
facet normal -0.130526 0.991445 0
 outer loop
  vertex -0.023009 0.0858708 0.06
  vertex 0 0.0889 0.06
  vertex -0.023009 0.0858708 -0.06
 endloop
endfacet
facet normal -0.130526 0.991445 0
 outer loop
  vertex 0 0.0889 0.06
  vertex 0 0.0889 -0.06
  vertex -0.023009 0.0858708 -0.06
 endloop
endfacet
facet normal 0.793353 0.608762 0
 outer loop
  vertex -0.0693686 -0.04005 0.06
  vertex -0.0566393 -0.0566392 0.06
  vertex -0.0693686 -0.04005 -0.06
 endloop
endfacet
facet normal 0.793353 0.608762 0
 outer loop
  vertex -0.0566393 -0.0566392 0.06
  vertex -0.0566392 -0.0566392 -0.06
  vertex -0.0693686 -0.04005 -0.06
 endloop
endfacet
facet normal 0.793353 -0.608762 0
 outer loop
  vertex 0.0769897 -0.04445 0.06
  vertex 0.0628618 -0.0628618 0.06
  vertex 0.0769897 -0.04445 -0.06
 endloop
endfacet
facet normal 0.793353 -0.608762 0
 outer loop
  vertex 0.0628618 -0.0628618 0.06
  vertex 0.0628618 -0.0628618 -0.06
  vertex 0.0769897 -0.04445 -0.06
 endloop
endfacet
facet normal 0 0 -1
 outer loop
  vertex -0.0280315 0.0837904 -0.06
  vertex 0 0.0801 -0.06
  vertex -0.04445 0.0769897 -0.06
 endloop
endfacet
facet normal 0 0 -1
 outer loop
  vertex 0 0.0801 -0.06
  vertex -0.0487629 0.0736802 -0.06
  vertex -0.04445 0.0769897 -0.06
 endloop
endfacet
facet normal 0.608761 0.793353 0
 outer loop
  vertex 0.04445 0.0769897 -0.06
  vertex 0.04445 0.0769897 0.06
  vertex 0.0628618 0.0628618 -0.06
 endloop
endfacet
facet normal 0.608761 0.793353 0
 outer loop
  vertex 0.04445 0.0769897 0.06
  vertex 0.0628618 0.0628618 0.06
  vertex 0.0628618 0.0628618 -0.06
 endloop
endfacet
facet normal 0.92388 0.382683 0
 outer loop
  vertex -0.0773707 -0.0207314 0.06
  vertex -0.0693686 -0.04005 0.06
  vertex -0.0773707 -0.0207314 -0.06
 endloop
endfacet
facet normal 0.92388 0.382683 0
 outer loop
  vertex -0.0693686 -0.04005 0.06
  vertex -0.0693686 -0.04005 -0.06
  vertex -0.0773707 -0.0207314 -0.06
 endloop
endfacet
facet normal -0.130526 -0.991445 0
 outer loop
  vertex -0.023009 -0.0858708 0.06
  vertex -0.023009 -0.0858708 -0.06
  vertex 0 -0.0889 0.06
 endloop
endfacet
facet normal -0.130526 -0.991445 0
 outer loop
  vertex -0.023009 -0.0858708 -0.06
  vertex 0 -0.0889 -0.06
  vertex 0 -0.0889 0.06
 endloop
endfacet
facet normal 0.382683 0.92388 0
 outer loop
  vertex -0.04005 -0.0693686 -0.06
  vertex -0.04005 -0.0693686 0.06
  vertex -0.0207314 -0.0773707 -0.06
 endloop
endfacet
facet normal 0.382683 0.92388 0
 outer loop
  vertex -0.04005 -0.0693686 0.06
  vertex -0.0207314 -0.0773707 0.06
  vertex -0.0207314 -0.0773707 -0.06
 endloop
endfacet
facet normal -0.608762 -0.793353 0
 outer loop
  vertex -0.04445 -0.0769897 -0.06
  vertex -0.04445 -0.0769897 0.06
  vertex -0.0628618 -0.0628618 -0.06
 endloop
endfacet
facet normal -0.608762 -0.793353 0
 outer loop
  vertex -0.04445 -0.0769897 0.06
  vertex -0.0628618 -0.0628618 0.06
  vertex -0.0628618 -0.0628618 -0.06
 endloop
endfacet
facet normal -1E-06 -0.5 0.866025
 outer loop
  vertex -0.1225 -0.00482082 0.00574533
  vertex -0.0984999 -0.00482087 0.00574533
  vertex -0.1225 -0.00256507 0.00704769
 endloop
endfacet
facet normal -1E-06 -0.5 0.866025
 outer loop
  vertex -0.0984999 -0.00482087 0.00574533
  vertex -0.0984999 -0.00256511 0.00704769
  vertex -0.1225 -0.00256507 0.00704769
 endloop
endfacet
facet normal 0 0 1
 outer loop
  vertex -0.0487629 0.0736802 0.06
  vertex 0 0.0801 0.06
  vertex -0.04445 0.0769897 0.06
 endloop
endfacet
facet normal 0 0 1
 outer loop
  vertex 0 0.0801 0.06
  vertex -0.0280315 0.0837904 0.06
  vertex -0.04445 0.0769897 0.06
 endloop
endfacet
facet normal 0 0 -1
 outer loop
  vertex -0.0661712 0.0585489 -0.06
  vertex -0.04005 0.0693686 -0.06
  vertex -0.0769897 0.04445 -0.06
 endloop
endfacet
facet normal 0 0 -1
 outer loop
  vertex -0.04005 0.0693686 -0.06
  vertex -0.0790701 0.0394275 -0.06
  vertex -0.0769897 0.04445 -0.06
 endloop
endfacet
facet normal 0.991445 -0.130526 0
 outer loop
  vertex -0.0801 0 -0.06
  vertex -0.0773707 0.0207314 -0.06
  vertex -0.0801 0 0.06
 endloop
endfacet
facet normal 0.991445 -0.130526 0
 outer loop
  vertex -0.0773707 0.0207314 -0.06
  vertex -0.0773707 0.0207314 0.06
  vertex -0.0801 0 0.06
 endloop
endfacet
facet normal 0 0 -1
 outer loop
  vertex 0.0487629 -0.0736802 -0.06
  vertex 0.04445 -0.0769897 -0.06
  vertex 0 -0.0801 -0.06
 endloop
endfacet
facet normal 0 0 -1
 outer loop
  vertex 0.04445 -0.0769897 -0.06
  vertex 0.0280315 -0.0837904 -0.06
  vertex 0 -0.0801 -0.06
 endloop
endfacet
facet normal -0.793353 0.608762 0
 outer loop
  vertex -0.0628618 0.0628618 -0.06
  vertex -0.0769897 0.04445 -0.06
  vertex -0.0628618 0.0628618 0.06
 endloop
endfacet
facet normal -0.793353 0.608761 0
 outer loop
  vertex -0.0769897 0.04445 -0.06
  vertex -0.0769897 0.04445 0.06
  vertex -0.0628618 0.0628618 0.06
 endloop
endfacet
facet normal 0 0 -1
 outer loop
  vertex -0.0790701 0.0394275 -0.06
  vertex -0.0566393 0.0566392 -0.06
  vertex -0.0858708 0.023009 -0.06
 endloop
endfacet
facet normal 0 0 -1
 outer loop
  vertex -0.0566393 0.0566392 -0.06
  vertex -0.0865804 0.0176192 -0.06
  vertex -0.0858708 0.023009 -0.06
 endloop
endfacet
facet normal -0.608761 0.793353 0
 outer loop
  vertex -0.0628618 0.0628618 -0.06
  vertex -0.0628618 0.0628618 0.06
  vertex -0.04445 0.0769897 -0.06
 endloop
endfacet
facet normal -0.608761 0.793353 0
 outer loop
  vertex -0.0628618 0.0628618 0.06
  vertex -0.04445 0.0769897 0.06
  vertex -0.04445 0.0769897 -0.06
 endloop
endfacet
facet normal 0.923879 -0.382684 0
 outer loop
  vertex -0.0693686 0.04005 0.06
  vertex -0.0773707 0.0207314 0.06
  vertex -0.0693686 0.04005 -0.06
 endloop
endfacet
facet normal 0.923879 -0.382684 0
 outer loop
  vertex -0.0773707 0.0207314 0.06
  vertex -0.0773707 0.0207314 -0.06
  vertex -0.0693686 0.04005 -0.06
 endloop
endfacet
facet normal 0.130526 -0.991445 0
 outer loop
  vertex 0.023009 -0.0858708 0.06
  vertex 0 -0.0889 0.06
  vertex 0.023009 -0.0858708 -0.06
 endloop
endfacet
facet normal 0.130526 -0.991445 0
 outer loop
  vertex 0 -0.0889 0.06
  vertex 0 -0.0889 -0.06
  vertex 0.023009 -0.0858708 -0.06
 endloop
endfacet
facet normal 0 0 -1
 outer loop
  vertex -0.0865804 0.0176192 -0.06
  vertex -0.0693686 0.04005 -0.06
  vertex -0.0889 0 -0.06
 endloop
endfacet
facet normal 0 0 -1
 outer loop
  vertex -0.0693686 0.04005 -0.06
  vertex -0.0881904 -0.00538978 -0.06
  vertex -0.0889 0 -0.06
 endloop
endfacet
facet normal 0.793353 -0.608761 0
 outer loop
  vertex -0.0693686 0.04005 0.06
  vertex -0.0693686 0.04005 -0.06
  vertex -0.0566392 0.0566393 0.06
 endloop
endfacet
facet normal 0.793353 -0.608761 0
 outer loop
  vertex -0.0693686 0.04005 -0.06
  vertex -0.0566393 0.0566392 -0.06
  vertex -0.0566392 0.0566393 0.06
 endloop
endfacet
facet normal 1E-06 -0.5 -0.866025
 outer loop
  vertex 0.0899999 -0.0112488 -0.0134058
  vertex 0.0899999 -0.00598533 -0.0164446
  vertex 0.0984999 -0.0112487 -0.0134058
 endloop
endfacet
facet normal 1E-06 -0.5 -0.866025
 outer loop
  vertex 0.0899999 -0.00598533 -0.0164446
  vertex 0.0984999 -0.00598531 -0.0164446
  vertex 0.0984999 -0.0112487 -0.0134058
 endloop
endfacet
facet normal 0 0 1
 outer loop
  vertex -0.0865804 0.0176192 0.06
  vertex -0.0566392 0.0566393 0.06
  vertex -0.0858708 0.023009 0.06
 endloop
endfacet
facet normal 0 0 1
 outer loop
  vertex -0.0566392 0.0566393 0.06
  vertex -0.07907 0.0394275 0.06
  vertex -0.0858708 0.023009 0.06
 endloop
endfacet
facet normal 0.991445 0.130526 0
 outer loop
  vertex -0.0801 0 -0.06
  vertex -0.0801 0 0.06
  vertex -0.0773707 -0.0207314 -0.06
 endloop
endfacet
facet normal 0.991445 0.130526 0
 outer loop
  vertex -0.0801 0 0.06
  vertex -0.0773707 -0.0207314 0.06
  vertex -0.0773707 -0.0207314 -0.06
 endloop
endfacet
facet normal 0 0.173648 -0.984808
 outer loop
  vertex 0.0899999 0.00598537 -0.0164446
  vertex 0.0984999 0.00598539 -0.0164446
  vertex 0.0899999 2.2E-08 -0.0175
 endloop
endfacet
facet normal 0 0.173648 -0.984808
 outer loop
  vertex 0.0984999 0.00598539 -0.0164446
  vertex 0.0984999 3.9E-08 -0.0175
  vertex 0.0899999 2.2E-08 -0.0175
 endloop
endfacet
facet normal -1E-06 0.5 -0.866025
 outer loop
  vertex 0.0899999 0.00598537 -0.0164446
  vertex 0.0899999 0.0112488 -0.0134058
  vertex 0.0984999 0.00598539 -0.0164446
 endloop
endfacet
facet normal -1E-06 0.5 -0.866025
 outer loop
  vertex 0.0899999 0.0112488 -0.0134058
  vertex 0.0984999 0.0112488 -0.0134058
  vertex 0.0984999 0.00598539 -0.0164446
 endloop
endfacet
facet normal 0 0 1
 outer loop
  vertex -0.0881904 -0.00538979 0.06
  vertex -0.0693686 0.04005 0.06
  vertex -0.0889 0 0.06
 endloop
endfacet
facet normal 0 0 1
 outer loop
  vertex -0.0693686 0.04005 0.06
  vertex -0.0865804 0.0176192 0.06
  vertex -0.0889 0 0.06
 endloop
endfacet
facet normal 0 0 -1
 outer loop
  vertex -0.0837904 -0.0280315 -0.06
  vertex -0.0801 0 -0.06
  vertex -0.0769897 -0.04445 -0.06
 endloop
endfacet
facet normal 0 0 -1
 outer loop
  vertex -0.0801 0 -0.06
  vertex -0.0736802 -0.0487629 -0.06
  vertex -0.0769897 -0.04445 -0.06
 endloop
endfacet
facet normal 0.382684 -0.923879 0
 outer loop
  vertex -0.04005 0.0693686 -0.06
  vertex -0.0207314 0.0773707 -0.06
  vertex -0.04005 0.0693686 0.06
 endloop
endfacet
facet normal 0.382684 -0.923879 0
 outer loop
  vertex -0.0207314 0.0773707 -0.06
  vertex -0.0207314 0.0773707 0.06
  vertex -0.04005 0.0693686 0.06
 endloop
endfacet
facet normal 1E-06 -0.5 -0.866025
 outer loop
  vertex 0.1225 -0.00482082 -0.00574533
  vertex 0.0984999 -0.00482087 -0.00574533
  vertex 0.1225 -0.00256507 -0.00704769
 endloop
endfacet
facet normal 1E-06 -0.5 -0.866025
 outer loop
  vertex 0.0984999 -0.00482087 -0.00574533
  vertex 0.0984999 -0.00256511 -0.00704769
  vertex 0.1225 -0.00256507 -0.00704769
 endloop
endfacet
facet normal 0 0 1
 outer loop
  vertex -0.0837904 -0.0280315 0.06
  vertex -0.0773707 0.0207314 0.06
  vertex -0.0858708 -0.023009 0.06
 endloop
endfacet
facet normal 0 0 1
 outer loop
  vertex -0.0773707 0.0207314 0.06
  vertex -0.0881904 -0.00538979 0.06
  vertex -0.0858708 -0.023009 0.06
 endloop
endfacet
facet normal 0 0 -1
 outer loop
  vertex -0.0736802 -0.0487629 -0.06
  vertex -0.0773707 -0.0207314 -0.06
  vertex -0.0628618 -0.0628618 -0.06
 endloop
endfacet
facet normal 0 0 -1
 outer loop
  vertex -0.0773707 -0.0207314 -0.06
  vertex -0.0585489 -0.0661712 -0.06
  vertex -0.0628618 -0.0628618 -0.06
 endloop
endfacet
facet normal -0.923879 0.382684 0
 outer loop
  vertex -0.0858708 0.023009 0.06
  vertex -0.0769897 0.04445 0.06
  vertex -0.0858708 0.023009 -0.06
 endloop
endfacet
facet normal -0.923879 0.382684 0
 outer loop
  vertex -0.0769897 0.04445 0.06
  vertex -0.0769897 0.04445 -0.06
  vertex -0.0858708 0.023009 -0.06
 endloop
endfacet
facet normal 0.130526 -0.991445 0
 outer loop
  vertex 0 0.0801 -0.06
  vertex 0 0.0801 0.06
  vertex -0.0207314 0.0773707 -0.06
 endloop
endfacet
facet normal 0.130526 -0.991445 0
 outer loop
  vertex 0 0.0801 0.06
  vertex -0.0207314 0.0773707 0.06
  vertex -0.0207314 0.0773707 -0.06
 endloop
endfacet
facet normal 0 0 1
 outer loop
  vertex -0.0736802 -0.0487629 0.06
  vertex -0.0801 0 0.06
  vertex -0.0769897 -0.04445 0.06
 endloop
endfacet
facet normal 0 0 1
 outer loop
  vertex -0.0801 0 0.06
  vertex -0.0837904 -0.0280315 0.06
  vertex -0.0769897 -0.04445 0.06
 endloop
endfacet
facet normal 0 0 -1
 outer loop
  vertex -0.0585489 -0.0661712 -0.06
  vertex -0.0693686 -0.04005 -0.06
  vertex -0.04445 -0.0769897 -0.06
 endloop
endfacet
facet normal 0 0 -1
 outer loop
  vertex -0.0693686 -0.04005 -0.06
  vertex -0.0394275 -0.0790701 -0.06
  vertex -0.04445 -0.0769897 -0.06
 endloop
endfacet
facet normal 0 0 1
 outer loop
  vertex -0.0789999 0.0240004 0.0428786
  vertex -0.0789999 -0.0239996 0.0428786
  vertex -0.0529999 0.0240004 0.0428786
 endloop
endfacet
facet normal 0 0 1
 outer loop
  vertex -0.0789999 -0.0239996 0.0428786
  vertex -0.0529999 -0.0239996 0.0428786
  vertex -0.0529999 0.0240004 0.0428786
 endloop
endfacet
facet normal 0 0 -1
 outer loop
  vertex -0.0789999 0.0240004 -0.0401214
  vertex -0.0529999 0.0240004 -0.0401214
  vertex -0.0789999 -0.0239996 -0.0401214
 endloop
endfacet
facet normal 0 0 -1
 outer loop
  vertex -0.0529999 0.0240004 -0.0401214
  vertex -0.0529999 -0.0239996 -0.0401214
  vertex -0.0789999 -0.0239996 -0.0401214
 endloop
endfacet
facet normal 0 1 0
 outer loop
  vertex -0.0789999 0.0240004 -0.0401214
  vertex -0.0789999 0.0240004 0.0428786
  vertex -0.0529999 0.0240004 -0.0401214
 endloop
endfacet
facet normal 0 1 0
 outer loop
  vertex -0.0789999 0.0240004 0.0428786
  vertex -0.0529999 0.0240004 0.0428786
  vertex -0.0529999 0.0240004 -0.0401214
 endloop
endfacet
facet normal -1 0 0
 outer loop
  vertex -0.0789999 0.0240004 0.0428786
  vertex -0.0789999 0.0240004 -0.0401214
  vertex -0.0789999 -0.0239996 0.0428786
 endloop
endfacet
facet normal -1 0 0
 outer loop
  vertex -0.0789999 0.0240004 -0.0401214
  vertex -0.0789999 -0.0239996 -0.0401214
  vertex -0.0789999 -0.0239996 0.0428786
 endloop
endfacet
facet normal 0 1 0
 outer loop
  vertex 0.0530103 0.0240004 -0.0401214
  vertex 0.0530103 0.0240004 0.0428786
  vertex 0.0790103 0.0240004 -0.0401214
 endloop
endfacet
facet normal 0 1 0
 outer loop
  vertex 0.0530103 0.0240004 0.0428786
  vertex 0.0790103 0.0240004 0.0428786
  vertex 0.0790103 0.0240004 -0.0401214
 endloop
endfacet
facet normal 0 -1 0
 outer loop
  vertex 0.0530103 -0.0239996 0.0428786
  vertex 0.0530103 -0.0239996 -0.0401214
  vertex 0.0790103 -0.0239996 0.0428786
 endloop
endfacet
facet normal 0 -1 0
 outer loop
  vertex 0.0530103 -0.0239996 -0.0401214
  vertex 0.0790103 -0.0239996 -0.0401214
  vertex 0.0790103 -0.0239996 0.0428786
 endloop
endfacet
facet normal 1 0 0
 outer loop
  vertex 0.0790103 0.0240004 -0.0401214
  vertex 0.0790103 0.0240004 0.0428786
  vertex 0.0790103 -0.0239996 -0.0401214
 endloop
endfacet
facet normal 1 0 0
 outer loop
  vertex 0.0790103 0.0240004 0.0428786
  vertex 0.0790103 -0.0239996 0.0428786
  vertex 0.0790103 -0.0239996 -0.0401214
 endloop
endfacet
facet normal 0 0 -1
 outer loop
  vertex 0.0530103 0.0240004 -0.0401214
  vertex 0.0790103 0.0240004 -0.0401214
  vertex 0.0530103 -0.0239996 -0.0401214
 endloop
endfacet
facet normal 0 0 -1
 outer loop
  vertex 0.0790103 0.0240004 -0.0401214
  vertex 0.0790103 -0.0239996 -0.0401214
  vertex 0.0530103 -0.0239996 -0.0401214
 endloop
endfacet
facet normal 0.608761 -0.793353 0
 outer loop
  vertex -0.0566392 0.0566393 0.06
  vertex -0.0566393 0.0566392 -0.06
  vertex -0.04005 0.0693686 0.06
 endloop
endfacet
facet normal 0.608761 -0.793353 0
 outer loop
  vertex -0.0566393 0.0566392 -0.06
  vertex -0.04005 0.0693686 -0.06
  vertex -0.04005 0.0693686 0.06
 endloop
endfacet
facet normal 0 0 -1
 outer loop
  vertex -0.0837904 -0.0280315 -0.06
  vertex -0.0858708 -0.023009 -0.06
  vertex -0.0773707 0.0207314 -0.06
 endloop
endfacet
facet normal 0 0 -1
 outer loop
  vertex -0.0858708 -0.023009 -0.06
  vertex -0.0881904 -0.00538978 -0.06
  vertex -0.0773707 0.0207314 -0.06
 endloop
endfacet
facet normal 1 0 0
 outer loop
  vertex 0.1225 -0.0064951 -0.00375
  vertex 0.1225 -0.00482082 -0.00574533
  vertex 0.1225 0.00649528 -0.00375
 endloop
endfacet
facet normal 1 0 0
 outer loop
  vertex 0.1225 -0.00482082 -0.00574533
  vertex 0.1225 0.00482099 -0.00574533
  vertex 0.1225 0.00649528 -0.00375
 endloop
endfacet
facet normal 0 0 1
 outer loop
  vertex -0.0280315 0.0837904 0.06
  vertex 0.0207314 0.0773707 0.06
  vertex -0.023009 0.0858708 0.06
 endloop
endfacet
facet normal 0 0 1
 outer loop
  vertex 0.0207314 0.0773707 0.06
  vertex -0.00538981 0.0881904 0.06
  vertex -0.023009 0.0858708 0.06
 endloop
endfacet
facet normal -0.991445 -0.130526 0
 outer loop
  vertex 0.0801 0 -0.06
  vertex 0.0801 0 0.06
  vertex 0.0773707 0.0207314 -0.06
 endloop
endfacet
facet normal -0.991445 -0.130526 0
 outer loop
  vertex 0.0801 0 0.06
  vertex 0.0773707 0.0207314 0.06
  vertex 0.0773707 0.0207314 -0.06
 endloop
endfacet
facet normal 0 0 1
 outer loop
  vertex -0.0176192 -0.0865804 0.06
  vertex -0.0566393 -0.0566392 0.06
  vertex -0.023009 -0.0858708 0.06
 endloop
endfacet
facet normal 0 0 1
 outer loop
  vertex -0.0566393 -0.0566392 0.06
  vertex -0.0394275 -0.0790701 0.06
  vertex -0.023009 -0.0858708 0.06
 endloop
endfacet
facet normal 0 -0.173648 0.984808
 outer loop
  vertex 0.0984999 3.9E-08 0.0075
  vertex 0.0984999 -0.00256511 0.0070477
  vertex 0.1225 8.5E-08 0.0075
 endloop
endfacet
facet normal 0 -0.173648 0.984808
 outer loop
  vertex 0.0984999 -0.00256511 0.0070477
  vertex 0.1225 -0.00256507 0.0070477
  vertex 0.1225 8.5E-08 0.0075
 endloop
endfacet
facet normal -1 0 0
 outer loop
  vertex -0.1225 -0.00256507 -0.0070477
  vertex -0.1225 -0.00482082 -0.00574534
  vertex -0.1225 8.5E-08 -0.0075
 endloop
endfacet
facet normal -1 0 0
 outer loop
  vertex -0.1225 -0.00482082 -0.00574534
  vertex -0.1225 -0.0064951 -0.00375
  vertex -0.1225 8.5E-08 -0.0075
 endloop
endfacet
facet normal 1.66667E-06 -0.766045 0.642787
 outer loop
  vertex 0.0984999 -0.00482087 0.00574534
  vertex 0.0984999 -0.00649515 0.00375
  vertex 0.1225 -0.00482082 0.00574534
 endloop
endfacet
facet normal 2E-06 -0.766045 0.642787
 outer loop
  vertex 0.0984999 -0.00649515 0.00375
  vertex 0.1225 -0.0064951 0.00375
  vertex 0.1225 -0.00482082 0.00574534
 endloop
endfacet
facet normal -1E-06 -0.5 -0.866025
 outer loop
  vertex -0.1225 -0.00482082 -0.00574534
  vertex -0.1225 -0.00256507 -0.0070477
  vertex -0.0984999 -0.00482087 -0.00574534
 endloop
endfacet
facet normal -1E-06 -0.5 -0.866025
 outer loop
  vertex -0.1225 -0.00256507 -0.0070477
  vertex -0.0984999 -0.00256511 -0.0070477
  vertex -0.0984999 -0.00482087 -0.00574534
 endloop
endfacet
facet normal 2E-06 -1 0
 outer loop
  vertex 0.1225 -0.00738597 0.00130236
  vertex 0.0984999 -0.00738602 0.00130236
  vertex 0.1225 -0.00738597 -0.00130236
 endloop
endfacet
facet normal 2E-06 -1 0
 outer loop
  vertex 0.0984999 -0.00738602 0.00130236
  vertex 0.0984999 -0.00738602 -0.00130236
  vertex 0.1225 -0.00738597 -0.00130236
 endloop
endfacet
facet normal -2E-06 -0.939693 0.34202
 outer loop
  vertex -0.0984999 -0.00649515 0.00375
  vertex -0.1225 -0.0064951 0.00375
  vertex -0.0984999 -0.00738602 0.00130236
 endloop
endfacet
facet normal -2E-06 -0.939693 0.34202
 outer loop
  vertex -0.1225 -0.0064951 0.00375
  vertex -0.1225 -0.00738597 0.00130236
  vertex -0.0984999 -0.00738602 0.00130236
 endloop
endfacet
facet normal 1E-06 -0.766044 -0.642788
 outer loop
  vertex 0.1225 -0.0064951 -0.00375
  vertex 0.0984999 -0.00649515 -0.00375
  vertex 0.1225 -0.00482082 -0.00574533
 endloop
endfacet
facet normal 1E-06 -0.766044 -0.642788
 outer loop
  vertex 0.0984999 -0.00649515 -0.00375
  vertex 0.0984999 -0.00482087 -0.00574533
  vertex 0.1225 -0.00482082 -0.00574533
 endloop
endfacet
facet normal 0 0.173648 0.984808
 outer loop
  vertex -0.0984999 0.00256519 0.00704769
  vertex -0.1225 0.00256524 0.00704769
  vertex -0.0984999 3.9E-08 0.0075
 endloop
endfacet
facet normal 0 0.173648 0.984808
 outer loop
  vertex -0.1225 0.00256524 0.00704769
  vertex -0.1225 8.5E-08 0.0075
  vertex -0.0984999 3.9E-08 0.0075
 endloop
endfacet
facet normal 1E-06 -0.5 0.866025
 outer loop
  vertex 0.0984999 -0.00256511 0.0070477
  vertex 0.0984999 -0.00482087 0.00574534
  vertex 0.1225 -0.00256507 0.0070477
 endloop
endfacet
facet normal 1E-06 -0.5 0.866025
 outer loop
  vertex 0.0984999 -0.00482087 0.00574534
  vertex 0.1225 -0.00482082 0.00574534
  vertex 0.1225 -0.00256507 0.0070477
 endloop
endfacet
facet normal 2E-06 0.939693 0.34202
 outer loop
  vertex -0.0984999 0.0073861 0.00130236
  vertex -0.1225 0.00738614 0.00130236
  vertex -0.0984999 0.00649523 0.00375
 endloop
endfacet
facet normal 2E-06 0.939693 0.34202
 outer loop
  vertex -0.1225 0.00738614 0.00130236
  vertex -0.1225 0.00649528 0.00375
  vertex -0.0984999 0.00649523 0.00375
 endloop
endfacet
facet normal -1E-06 0.5 -0.866025
 outer loop
  vertex 0.1225 0.00256524 -0.00704769
  vertex 0.0984999 0.00256519 -0.00704769
  vertex 0.1225 0.00482099 -0.00574533
 endloop
endfacet
facet normal -1E-06 0.5 -0.866025
 outer loop
  vertex 0.0984999 0.00256519 -0.00704769
  vertex 0.0984999 0.00482094 -0.00574533
  vertex 0.1225 0.00482099 -0.00574533
 endloop
endfacet
facet normal 1E-06 0.5 -0.866025
 outer loop
  vertex -0.1225 0.00256524 -0.0070477
  vertex -0.1225 0.00482099 -0.00574534
  vertex -0.0984999 0.00256519 -0.0070477
 endloop
endfacet
facet normal 1E-06 0.5 -0.866025
 outer loop
  vertex -0.1225 0.00482099 -0.00574534
  vertex -0.0984999 0.00482095 -0.00574534
  vertex -0.0984999 0.00256519 -0.0070477
 endloop
endfacet
facet normal -2E-06 0.939693 -0.34202
 outer loop
  vertex 0.1225 0.00649528 -0.00375
  vertex 0.0984999 0.00649523 -0.00375
  vertex 0.1225 0.00738614 -0.00130236
 endloop
endfacet
facet normal -2E-06 0.939693 -0.34202
 outer loop
  vertex 0.0984999 0.00649523 -0.00375
  vertex 0.0984999 0.0073861 -0.00130236
  vertex 0.1225 0.00738614 -0.00130236
 endloop
endfacet
facet normal -2E-06 0.939693 0.34202
 outer loop
  vertex 0.1225 0.00649528 0.00375
  vertex 0.1225 0.00738614 0.00130236
  vertex 0.0984999 0.00649523 0.00375
 endloop
endfacet
facet normal -2E-06 0.939693 0.34202
 outer loop
  vertex 0.1225 0.00738614 0.00130236
  vertex 0.0984999 0.0073861 0.00130236
  vertex 0.0984999 0.00649523 0.00375
 endloop
endfacet
facet normal 0 0 1
 outer loop
  vertex -0.0799 -0.029 0.03
  vertex -0.0789 -0.029 0.03
  vertex -0.0798998 0.029 0.03
 endloop
endfacet
facet normal 0 0 1
 outer loop
  vertex -0.0789 -0.029 0.03
  vertex -0.0788998 0.029 0.03
  vertex -0.0798998 0.029 0.03
 endloop
endfacet
facet normal -1E-06 0.5 0.866025
 outer loop
  vertex 0.1225 0.00256524 0.0070477
  vertex 0.1225 0.00482099 0.00574534
  vertex 0.0984999 0.00256519 0.0070477
 endloop
endfacet
facet normal -1E-06 0.5 0.866025
 outer loop
  vertex 0.1225 0.00482099 0.00574534
  vertex 0.0984999 0.00482095 0.00574534
  vertex 0.0984999 0.00256519 0.0070477
 endloop
endfacet
facet normal 0 0.173648 -0.984808
 outer loop
  vertex 0.1225 8.5E-08 -0.0075
  vertex 0.0984999 3.9E-08 -0.0075
  vertex 0.1225 0.00256524 -0.00704769
 endloop
endfacet
facet normal 0 0.173648 -0.984808
 outer loop
  vertex 0.0984999 3.9E-08 -0.0075
  vertex 0.0984999 0.00256519 -0.00704769
  vertex 0.1225 0.00256524 -0.00704769
 endloop
endfacet
facet normal -0.382683 -0.92388 0
 outer loop
  vertex 0.04005 0.0693686 0.06
  vertex 0.0207314 0.0773707 0.06
  vertex 0.04005 0.0693686 -0.06
 endloop
endfacet
facet normal -0.382683 -0.92388 0
 outer loop
  vertex 0.0207314 0.0773707 0.06
  vertex 0.0207314 0.0773707 -0.06
  vertex 0.04005 0.0693686 -0.06
 endloop
endfacet
facet normal -1 3E-06 -6.66667E-07
 outer loop
  vertex -0.0984999 0.0112488 0.0134058
  vertex -0.0984999 0.0151555 -0.00875
  vertex -0.0984999 0.00598539 0.0164446
 endloop
endfacet
facet normal -1 1.33333E-06 -1.33333E-06
 outer loop
  vertex -0.0984999 0.0151555 -0.00875
  vertex -0.0984999 0.0112488 -0.0134058
  vertex -0.0984999 0.00598539 0.0164446
 endloop
endfacet
facet normal 0 -0.173648 -0.984808
 outer loop
  vertex -0.0899999 2.2E-08 -0.0175
  vertex -0.0899999 -0.00598533 -0.0164446
  vertex -0.0984999 3.9E-08 -0.0175
 endloop
endfacet
facet normal 0 -0.173648 -0.984808
 outer loop
  vertex -0.0899999 -0.00598533 -0.0164446
  vertex -0.0984999 -0.00598531 -0.0164446
  vertex -0.0984999 3.9E-08 -0.0175
 endloop
endfacet
facet normal 2E-06 -1 0
 outer loop
  vertex 0.0789 -0.029 -0.03
  vertex 0.0799 -0.029 -0.03
  vertex 0.0789 -0.029 0.03
 endloop
endfacet
facet normal 2E-06 -1 0
 outer loop
  vertex 0.0799 -0.029 -0.03
  vertex 0.0799 -0.029 0.03
  vertex 0.0789 -0.029 0.03
 endloop
endfacet
facet normal -2E-06 -1 0
 outer loop
  vertex -0.0899999 -0.0172341 -0.00303885
  vertex -0.0899999 -0.0172341 0.00303884
  vertex -0.0984999 -0.0172341 -0.00303885
 endloop
endfacet
facet normal -2E-06 -1 0
 outer loop
  vertex -0.0899999 -0.0172341 0.00303884
  vertex -0.0984999 -0.0172341 0.00303884
  vertex -0.0984999 -0.0172341 -0.00303885
 endloop
endfacet
facet normal -2E-06 -0.939693 0.34202
 outer loop
  vertex -0.0984999 -0.0172341 0.00303884
  vertex -0.0899999 -0.0172341 0.00303884
  vertex -0.0984999 -0.0151554 0.00875
 endloop
endfacet
facet normal -2E-06 -0.939693 0.34202
 outer loop
  vertex -0.0899999 -0.0172341 0.00303884
  vertex -0.0899999 -0.0151554 0.00875
  vertex -0.0984999 -0.0151554 0.00875
 endloop
endfacet
facet normal 0 -0.173648 0.984808
 outer loop
  vertex -0.0984999 -0.00598531 0.0164446
  vertex -0.0899999 -0.00598533 0.0164446
  vertex -0.0984999 3.9E-08 0.0175
 endloop
endfacet
facet normal 0 -0.173648 0.984808
 outer loop
  vertex -0.0899999 -0.00598533 0.0164446
  vertex -0.0899999 2.2E-08 0.0175
  vertex -0.0984999 3.9E-08 0.0175
 endloop
endfacet
facet normal -1E-06 -0.5 -0.866026
 outer loop
  vertex -0.0899999 -0.0112488 -0.0134058
  vertex -0.0984999 -0.0112487 -0.0134058
  vertex -0.0899999 -0.00598533 -0.0164446
 endloop
endfacet
facet normal -1E-06 -0.5 -0.866026
 outer loop
  vertex -0.0984999 -0.0112487 -0.0134058
  vertex -0.0984999 -0.00598531 -0.0164446
  vertex -0.0899999 -0.00598533 -0.0164446
 endloop
endfacet
facet normal 1E-06 0.5 0.866025
 outer loop
  vertex -0.0899999 0.00598537 0.0164446
  vertex -0.0899999 0.0112488 0.0134058
  vertex -0.0984999 0.00598539 0.0164446
 endloop
endfacet
facet normal 1E-06 0.5 0.866025
 outer loop
  vertex -0.0899999 0.0112488 0.0134058
  vertex -0.0984999 0.0112488 0.0134058
  vertex -0.0984999 0.00598539 0.0164446
 endloop
endfacet
facet normal 2E-06 0.939693 0.34202
 outer loop
  vertex -0.0984999 0.0151555 0.00875
  vertex -0.0899999 0.0151555 0.00875
  vertex -0.0984999 0.0172342 0.00303884
 endloop
endfacet
facet normal 2E-06 0.939693 0.34202
 outer loop
  vertex -0.0899999 0.0151555 0.00875
  vertex -0.0899999 0.0172342 0.00303884
  vertex -0.0984999 0.0172342 0.00303884
 endloop
endfacet
facet normal 1E-06 0.766044 -0.642788
 outer loop
  vertex -0.0984999 0.0112488 -0.0134058
  vertex -0.0984999 0.0151555 -0.00875
  vertex -0.0899999 0.0112488 -0.0134058
 endloop
endfacet
facet normal 1E-06 0.766044 -0.642788
 outer loop
  vertex -0.0984999 0.0151555 -0.00875
  vertex -0.0899999 0.0151555 -0.00875
  vertex -0.0899999 0.0112488 -0.0134058
 endloop
endfacet
facet normal 0 0 1
 outer loop
  vertex 0.0585489 0.0661712 0.06
  vertex 0.0773707 0.0207314 0.06
  vertex 0.0628618 0.0628618 0.06
 endloop
endfacet
facet normal 0 0 1
 outer loop
  vertex 0.0773707 0.0207314 0.06
  vertex 0.0736802 0.0487629 0.06
  vertex 0.0628618 0.0628618 0.06
 endloop
endfacet
facet normal -1 2E-06 0
 outer loop
  vertex -0.0899998 0.04 -0.04
  vertex -0.09 -0.04 -0.04
  vertex -0.0899998 0.04 0.04
 endloop
endfacet
facet normal -1 2E-06 0
 outer loop
  vertex -0.09 -0.04 -0.04
  vertex -0.09 -0.04 0.04
  vertex -0.0899998 0.04 0.04
 endloop
endfacet
facet normal 0 0.173648 -0.984808
 outer loop
  vertex -0.0984999 3.9E-08 -0.0175
  vertex -0.0984999 0.00598539 -0.0164446
  vertex -0.0899999 2.2E-08 -0.0175
 endloop
endfacet
facet normal 0 0.173648 -0.984808
 outer loop
  vertex -0.0984999 0.00598539 -0.0164446
  vertex -0.0899999 0.00598538 -0.0164446
  vertex -0.0899999 2.2E-08 -0.0175
 endloop
endfacet
facet normal 0 0 -1
 outer loop
  vertex -0.0798998 0.04 -0.04
  vertex -0.0799 -0.04 -0.04
  vertex -0.0899998 0.04 -0.04
 endloop
endfacet
facet normal 0 0 -1
 outer loop
  vertex -0.0799 -0.04 -0.04
  vertex -0.09 -0.04 -0.04
  vertex -0.0899998 0.04 -0.04
 endloop
endfacet
facet normal 0 0 1
 outer loop
  vertex 0.0280315 -0.0837904 0.06
  vertex 0.04445 -0.0769897 0.06
  vertex 0 -0.0801 0.06
 endloop
endfacet
facet normal 0 0 1
 outer loop
  vertex 0.04445 -0.0769897 0.06
  vertex 0.0487629 -0.0736802 0.06
  vertex 0 -0.0801 0.06
 endloop
endfacet
facet normal 0 0 -1
 outer loop
  vertex 0.0798998 0.04 -0.04
  vertex 0.0899998 0.04 -0.04
  vertex 0.0799 -0.04 -0.04
 endloop
endfacet
facet normal 0 0 -1
 outer loop
  vertex 0.0899998 0.04 -0.04
  vertex 0.09 -0.04 -0.04
  vertex 0.0799 -0.04 -0.04
 endloop
endfacet
facet normal 2E-06 -1 0
 outer loop
  vertex 0.09 -0.04 0.04
  vertex 0.0799 -0.04 0.04
  vertex 0.09 -0.04 -0.04
 endloop
endfacet
facet normal 2E-06 -1 0
 outer loop
  vertex 0.0799 -0.04 0.04
  vertex 0.0799 -0.04 -0.04
  vertex 0.09 -0.04 -0.04
 endloop
endfacet
facet normal -2E-06 1 0
 outer loop
  vertex 0.0798998 0.04 0.04
  vertex 0.0899998 0.04 0.04
  vertex 0.0798998 0.04 -0.04
 endloop
endfacet
facet normal -2E-06 1 0
 outer loop
  vertex 0.0899998 0.04 0.04
  vertex 0.0899998 0.04 -0.04
  vertex 0.0798998 0.04 -0.04
 endloop
endfacet
facet normal 0 0 1
 outer loop
  vertex -0.00538981 0.0881904 0.06
  vertex 0.04005 0.0693686 0.06
  vertex 0 0.0889 0.06
 endloop
endfacet
facet normal 0 0 1
 outer loop
  vertex 0.04005 0.0693686 0.06
  vertex 0.0176192 0.0865804 0.06
  vertex 0 0.0889 0.06
 endloop
endfacet
facet normal -0.793353 -0.608761 0
 outer loop
  vertex 0.0566393 0.0566392 -0.06
  vertex 0.0693686 0.04005 -0.06
  vertex 0.0566393 0.0566392 0.06
 endloop
endfacet
facet normal -0.793353 -0.608761 0
 outer loop
  vertex 0.0693686 0.04005 -0.06
  vertex 0.0693686 0.04005 0.06
  vertex 0.0566393 0.0566392 0.06
 endloop
endfacet
facet normal 1 3E-06 6.66667E-07
 outer loop
  vertex 0.0984999 0.0112488 -0.0134058
  vertex 0.0984999 0.0151555 0.00875
  vertex 0.0984999 0.00598539 -0.0164446
 endloop
endfacet
facet normal 1 1.33333E-06 1.33333E-06
 outer loop
  vertex 0.0984999 0.0151555 0.00875
  vertex 0.0984999 0.0112488 0.0134058
  vertex 0.0984999 0.00598539 -0.0164446
 endloop
endfacet
facet normal -1 2E-06 0
 outer loop
  vertex -0.0798998 0.029 -0.03
  vertex -0.0799 -0.029 -0.03
  vertex -0.0798998 0.029 0.03
 endloop
endfacet
facet normal -1 2E-06 0
 outer loop
  vertex -0.0799 -0.029 -0.03
  vertex -0.0799 -0.029 0.03
  vertex -0.0798998 0.029 0.03
 endloop
endfacet
facet normal 1 2E-06 0
 outer loop
  vertex 0.0798998 0.029 0.03
  vertex 0.0799 -0.029 0.03
  vertex 0.0798998 0.029 -0.03
 endloop
endfacet
facet normal 1 2E-06 0
 outer loop
  vertex 0.0799 -0.029 0.03
  vertex 0.0799 -0.029 -0.03
  vertex 0.0798998 0.029 -0.03
 endloop
endfacet
facet normal 0 0 -1
 outer loop
  vertex 0.00538981 -0.0881904 -0.06
  vertex -0.0207314 -0.0773707 -0.06
  vertex 0.023009 -0.0858708 -0.06
 endloop
endfacet
facet normal 0 0 -1
 outer loop
  vertex -0.0207314 -0.0773707 -0.06
  vertex 0.0280315 -0.0837904 -0.06
  vertex 0.023009 -0.0858708 -0.06
 endloop
endfacet
facet normal -1.33333E-06 0.766044 -0.642788
 outer loop
  vertex 0.1225 0.00482099 -0.00574533
  vertex 0.0984999 0.00482094 -0.00574533
  vertex 0.1225 0.00649528 -0.00375
 endloop
endfacet
facet normal -1E-06 0.766044 -0.642788
 outer loop
  vertex 0.0984999 0.00482094 -0.00574533
  vertex 0.0984999 0.00649523 -0.00375
  vertex 0.1225 0.00649528 -0.00375
 endloop
endfacet
facet normal 1E-06 -0.5 0.866026
 outer loop
  vertex 0.0899999 -0.0112488 0.0134058
  vertex 0.0984999 -0.0112487 0.0134058
  vertex 0.0899999 -0.00598533 0.0164446
 endloop
endfacet
facet normal 1E-06 -0.5 0.866026
 outer loop
  vertex 0.0984999 -0.0112487 0.0134058
  vertex 0.0984999 -0.00598531 0.0164446
  vertex 0.0899999 -0.00598533 0.0164446
 endloop
endfacet
facet normal 0 0 1
 outer loop
  vertex -0.07907 0.0394275 0.06
  vertex -0.04005 0.0693686 0.06
  vertex -0.0769897 0.04445 0.06
 endloop
endfacet
facet normal 0 0 1
 outer loop
  vertex -0.04005 0.0693686 0.06
  vertex -0.0661712 0.0585489 0.06
  vertex -0.0769897 0.04445 0.06
 endloop
endfacet
facet normal 2E-06 -0.939693 -0.34202
 outer loop
  vertex 0.0899999 -0.0151554 -0.00875
  vertex 0.0984999 -0.0151554 -0.00875
  vertex 0.0899999 -0.0172341 -0.00303884
 endloop
endfacet
facet normal 2E-06 -0.939693 -0.34202
 outer loop
  vertex 0.0984999 -0.0151554 -0.00875
  vertex 0.0984999 -0.0172341 -0.00303884
  vertex 0.0899999 -0.0172341 -0.00303884
 endloop
endfacet
facet normal 2E-06 -0.939693 0.34202
 outer loop
  vertex 0.0984999 -0.0172341 0.00303885
  vertex 0.0984999 -0.0151554 0.00875
  vertex 0.0899999 -0.0172341 0.00303885
 endloop
endfacet
facet normal 2E-06 -0.939693 0.34202
 outer loop
  vertex 0.0984999 -0.0151554 0.00875
  vertex 0.0899999 -0.0151554 0.00875
  vertex 0.0899999 -0.0172341 0.00303885
 endloop
endfacet
facet normal 0 -0.173648 -0.984808
 outer loop
  vertex 0.0984999 -0.00598531 -0.0164446
  vertex 0.0899999 -0.00598533 -0.0164446
  vertex 0.0984999 3.9E-08 -0.0175
 endloop
endfacet
facet normal 0 -0.173648 -0.984808
 outer loop
  vertex 0.0899999 -0.00598533 -0.0164446
  vertex 0.0899999 2.2E-08 -0.0175
  vertex 0.0984999 3.9E-08 -0.0175
 endloop
endfacet
facet normal 0 0 -1
 outer loop
  vertex 0.0394275 0.07907 -0.06
  vertex 0.0566393 0.0566392 -0.06
  vertex 0.023009 0.0858708 -0.06
 endloop
endfacet
facet normal 0 0 -1
 outer loop
  vertex 0.0566393 0.0566392 -0.06
  vertex 0.0176192 0.0865804 -0.06
  vertex 0.023009 0.0858708 -0.06
 endloop
endfacet
facet normal -2E-06 0.939693 -0.34202
 outer loop
  vertex 0.0899999 0.0172342 -0.00303884
  vertex 0.0984999 0.0172342 -0.00303884
  vertex 0.0899999 0.0151555 -0.00875
 endloop
endfacet
facet normal -2E-06 0.939693 -0.34202
 outer loop
  vertex 0.0984999 0.0172342 -0.00303884
  vertex 0.0984999 0.0151555 -0.00875
  vertex 0.0899999 0.0151555 -0.00875
 endloop
endfacet
facet normal -2E-06 1 0
 outer loop
  vertex 0.0899999 0.0172342 0.00303885
  vertex 0.0984999 0.0172342 0.00303885
  vertex 0.0899999 0.0172342 -0.00303884
 endloop
endfacet
facet normal -2E-06 1 0
 outer loop
  vertex 0.0984999 0.0172342 0.00303885
  vertex 0.0984999 0.0172342 -0.00303884
  vertex 0.0899999 0.0172342 -0.00303884
 endloop
endfacet
facet normal -1E-06 0.5 0.866026
 outer loop
  vertex 0.0899999 0.00598538 0.0164446
  vertex 0.0984999 0.00598539 0.0164446
  vertex 0.0899999 0.0112488 0.0134058
 endloop
endfacet
facet normal -1E-06 0.5 0.866025
 outer loop
  vertex 0.0984999 0.00598539 0.0164446
  vertex 0.0984999 0.0112488 0.0134058
  vertex 0.0899999 0.0112488 0.0134058
 endloop
endfacet
facet normal 0 0.173648 0.984808
 outer loop
  vertex 0.0899999 0.00598538 0.0164446
  vertex 0.0899999 2.2E-08 0.0175
  vertex 0.0984999 0.00598539 0.0164446
 endloop
endfacet
facet normal 0 0.173648 0.984808
 outer loop
  vertex 0.0899999 2.2E-08 0.0175
  vertex 0.0984999 3.9E-08 0.0175
  vertex 0.0984999 0.00598539 0.0164446
 endloop
endfacet
facet normal 0 0 1
 outer loop
  vertex -0.0736802 -0.0487629 0.06
  vertex -0.0628618 -0.0628618 0.06
  vertex -0.0773707 -0.0207314 0.06
 endloop
endfacet
facet normal 0 0 1
 outer loop
  vertex -0.0628618 -0.0628618 0.06
  vertex -0.0585489 -0.0661712 0.06
  vertex -0.0773707 -0.0207314 0.06
 endloop
endfacet
facet normal 0 -1 0
 outer loop
  vertex -0.0789999 -0.0239996 0.0428786
  vertex -0.0789999 -0.0239996 -0.0401214
  vertex -0.0529999 -0.0239996 0.0428786
 endloop
endfacet
facet normal 0 -1 0
 outer loop
  vertex -0.0789999 -0.0239996 -0.0401214
  vertex -0.0529999 -0.0239996 -0.0401214
  vertex -0.0529999 -0.0239996 0.0428786
 endloop
endfacet
facet normal 0 0 1
 outer loop
  vertex 0.0530103 0.0240004 0.0428786
  vertex 0.0530103 -0.0239996 0.0428786
  vertex 0.0790103 0.0240004 0.0428786
 endloop
endfacet
facet normal 0 0 1
 outer loop
  vertex 0.0530103 -0.0239996 0.0428786
  vertex 0.0790103 -0.0239996 0.0428786
  vertex 0.0790103 0.0240004 0.0428786
 endloop
endfacet
facet normal 0 0 1
 outer loop
  vertex 0.00538982 -0.0881904 0.06
  vertex -0.04005 -0.0693686 0.06
  vertex 0 -0.0889 0.06
 endloop
endfacet
facet normal 0 0 1
 outer loop
  vertex -0.04005 -0.0693686 0.06
  vertex -0.0176192 -0.0865804 0.06
  vertex 0 -0.0889 0.06
 endloop
endfacet
facet normal -1 0 0
 outer loop
  vertex 0.0530103 -0.0239996 -0.0401214
  vertex 0.0530103 -0.0239996 0.0428786
  vertex 0.0530103 0.0240004 -0.0401214
 endloop
endfacet
facet normal -1 0 0
 outer loop
  vertex 0.0530103 -0.0239996 0.0428786
  vertex 0.0530103 0.0240004 0.0428786
  vertex 0.0530103 0.0240004 -0.0401214
 endloop
endfacet
facet normal 0 0 -1
 outer loop
  vertex -0.0487629 0.0736802 -0.06
  vertex -0.0207314 0.0773707 -0.06
  vertex -0.0628618 0.0628618 -0.06
 endloop
endfacet
facet normal 0 0 -1
 outer loop
  vertex -0.0207314 0.0773707 -0.06
  vertex -0.0661712 0.0585489 -0.06
  vertex -0.0628618 0.0628618 -0.06
 endloop
endfacet
facet normal 1 0 0
 outer loop
  vertex -0.0529999 -0.0239996 0.0428786
  vertex -0.0529999 -0.0239996 -0.0401214
  vertex -0.0529999 0.0240004 0.0428786
 endloop
endfacet
facet normal 1 0 0
 outer loop
  vertex -0.0529999 -0.0239996 -0.0401214
  vertex -0.0529999 0.0240004 -0.0401214
  vertex -0.0529999 0.0240004 0.0428786
 endloop
endfacet
facet normal 0 0 -1
 outer loop
  vertex -0.0788998 0.029 -0.03
  vertex -0.0789 -0.029 -0.03
  vertex -0.0798998 0.029 -0.03
 endloop
endfacet
facet normal 0 0 -1
 outer loop
  vertex -0.0789 -0.029 -0.03
  vertex -0.0799 -0.029 -0.03
  vertex -0.0798998 0.029 -0.03
 endloop
endfacet
facet normal -1 0 0
 outer loop
  vertex -0.1225 -0.0064951 0.00375
  vertex -0.1225 -0.00482082 0.00574533
  vertex -0.1225 0.00649528 0.00375
 endloop
endfacet
facet normal -1 0 0
 outer loop
  vertex -0.1225 -0.00482082 0.00574533
  vertex -0.1225 0.00482099 0.00574533
  vertex -0.1225 0.00649528 0.00375
 endloop
endfacet
facet normal 0 -0.173648 -0.984808
 outer loop
  vertex -0.0984999 3.9E-08 -0.0075
  vertex -0.0984999 -0.00256511 -0.0070477
  vertex -0.1225 8.5E-08 -0.0075
 endloop
endfacet
facet normal 0 -0.173648 -0.984808
 outer loop
  vertex -0.0984999 -0.00256511 -0.0070477
  vertex -0.1225 -0.00256507 -0.0070477
  vertex -0.1225 8.5E-08 -0.0075
 endloop
endfacet
facet normal -1.66667E-06 -0.766045 -0.642787
 outer loop
  vertex -0.0984999 -0.00482087 -0.00574534
  vertex -0.0984999 -0.00649515 -0.00375
  vertex -0.1225 -0.00482082 -0.00574534
 endloop
endfacet
facet normal -2E-06 -0.766045 -0.642787
 outer loop
  vertex -0.0984999 -0.00649515 -0.00375
  vertex -0.1225 -0.0064951 -0.00375
  vertex -0.1225 -0.00482082 -0.00574534
 endloop
endfacet
facet normal 1E-06 0.5 0.866025
 outer loop
  vertex -0.1225 0.00256524 0.00704769
  vertex -0.0984999 0.00256519 0.00704769
  vertex -0.1225 0.00482099 0.00574533
 endloop
endfacet
facet normal 1E-06 0.5 0.866025
 outer loop
  vertex -0.0984999 0.00256519 0.00704769
  vertex -0.0984999 0.00482094 0.00574533
  vertex -0.1225 0.00482099 0.00574533
 endloop
endfacet
facet normal 2E-06 1 0
 outer loop
  vertex -0.1225 0.00738614 0.00130236
  vertex -0.0984999 0.0073861 0.00130236
  vertex -0.1225 0.00738614 -0.00130236
 endloop
endfacet
facet normal 2E-06 1 0
 outer loop
  vertex -0.0984999 0.0073861 0.00130236
  vertex -0.0984999 0.0073861 -0.00130236
  vertex -0.1225 0.00738614 -0.00130236
 endloop
endfacet
facet normal 0 0.173648 -0.984808
 outer loop
  vertex -0.0984999 0.00256519 -0.0070477
  vertex -0.0984999 3.9E-08 -0.0075
  vertex -0.1225 0.00256524 -0.0070477
 endloop
endfacet
facet normal 0 0.173648 -0.984808
 outer loop
  vertex -0.0984999 3.9E-08 -0.0075
  vertex -0.1225 8.5E-08 -0.0075
  vertex -0.1225 0.00256524 -0.0070477
 endloop
endfacet
facet normal 1.33333E-06 0.766044 0.642788
 outer loop
  vertex -0.1225 0.00482099 0.00574533
  vertex -0.0984999 0.00482094 0.00574533
  vertex -0.1225 0.00649528 0.00375
 endloop
endfacet
facet normal 1E-06 0.766044 0.642788
 outer loop
  vertex -0.0984999 0.00482094 0.00574533
  vertex -0.0984999 0.00649523 0.00375
  vertex -0.1225 0.00649528 0.00375
 endloop
endfacet
facet normal 0 0 -1
 outer loop
  vertex -0.0394275 -0.0790701 -0.06
  vertex -0.0566392 -0.0566392 -0.06
  vertex -0.023009 -0.0858708 -0.06
 endloop
endfacet
facet normal 0 0 -1
 outer loop
  vertex -0.0566392 -0.0566392 -0.06
  vertex -0.0176192 -0.0865804 -0.06
  vertex -0.023009 -0.0858708 -0.06
 endloop
endfacet
facet normal -0.608761 -0.793353 0
 outer loop
  vertex 0.0566393 0.0566392 0.06
  vertex 0.04005 0.0693686 0.06
  vertex 0.0566393 0.0566392 -0.06
 endloop
endfacet
facet normal -0.608761 -0.793353 0
 outer loop
  vertex 0.04005 0.0693686 0.06
  vertex 0.04005 0.0693686 -0.06
  vertex 0.0566393 0.0566392 -0.06
 endloop
endfacet
facet normal -2E-06 -0.939693 -0.34202
 outer loop
  vertex -0.0984999 -0.0172341 -0.00303885
  vertex -0.0984999 -0.0151554 -0.00875
  vertex -0.0899999 -0.0172341 -0.00303885
 endloop
endfacet
facet normal -2E-06 -0.939693 -0.34202
 outer loop
  vertex -0.0984999 -0.0151554 -0.00875
  vertex -0.0899999 -0.0151554 -0.00875
  vertex -0.0899999 -0.0172341 -0.00303885
 endloop
endfacet
facet normal -1E-06 -0.766044 -0.642788
 outer loop
  vertex -0.0899999 -0.0112488 -0.0134058
  vertex -0.0899999 -0.0151554 -0.00875
  vertex -0.0984999 -0.0112487 -0.0134058
 endloop
endfacet
facet normal -1E-06 -0.766044 -0.642788
 outer loop
  vertex -0.0899999 -0.0151554 -0.00875
  vertex -0.0984999 -0.0151554 -0.00875
  vertex -0.0984999 -0.0112487 -0.0134058
 endloop
endfacet
facet normal -2E-06 1 0
 outer loop
  vertex 0.1225 0.00738614 -0.00130236
  vertex 0.0984999 0.0073861 -0.00130236
  vertex 0.1225 0.00738614 0.00130236
 endloop
endfacet
facet normal -2E-06 1 0
 outer loop
  vertex 0.0984999 0.0073861 -0.00130236
  vertex 0.0984999 0.0073861 0.00130236
  vertex 0.1225 0.00738614 0.00130236
 endloop
endfacet
facet normal 0 0.173648 0.984808
 outer loop
  vertex -0.0899999 0.00598537 0.0164446
  vertex -0.0984999 0.00598539 0.0164446
  vertex -0.0899999 2.2E-08 0.0175
 endloop
endfacet
facet normal 0 0.173648 0.984808
 outer loop
  vertex -0.0984999 0.00598539 0.0164446
  vertex -0.0984999 3.9E-08 0.0175
  vertex -0.0899999 2.2E-08 0.0175
 endloop
endfacet
facet normal 2E-06 0.939693 -0.34202
 outer loop
  vertex -0.0899999 0.0172342 -0.00303885
  vertex -0.0899999 0.0151555 -0.00875
  vertex -0.0984999 0.0172342 -0.00303885
 endloop
endfacet
facet normal 2E-06 0.939693 -0.34202
 outer loop
  vertex -0.0899999 0.0151555 -0.00875
  vertex -0.0984999 0.0151555 -0.00875
  vertex -0.0984999 0.0172342 -0.00303885
 endloop
endfacet
facet normal 0 0 1
 outer loop
  vertex -0.09 -0.04 0.04
  vertex -0.0799 -0.04 0.04
  vertex -0.0899998 0.04 0.04
 endloop
endfacet
facet normal 0 0 1
 outer loop
  vertex -0.0799 -0.04 0.04
  vertex -0.0798998 0.04 0.04
  vertex -0.0899998 0.04 0.04
 endloop
endfacet
facet normal -1E-06 -0.766044 0.642788
 outer loop
  vertex -0.0984999 -0.0151554 0.00875
  vertex -0.0899999 -0.0151554 0.00875
  vertex -0.0984999 -0.0112487 0.0134058
 endloop
endfacet
facet normal -1E-06 -0.766044 0.642788
 outer loop
  vertex -0.0899999 -0.0151554 0.00875
  vertex -0.0899999 -0.0112488 0.0134058
  vertex -0.0984999 -0.0112487 0.0134058
 endloop
endfacet
facet normal -1E-06 -0.766044 0.642788
 outer loop
  vertex -0.0984999 -0.00482087 0.00574533
  vertex -0.1225 -0.00482082 0.00574533
  vertex -0.0984999 -0.00649515 0.00375
 endloop
endfacet
facet normal -1E-06 -0.766044 0.642788
 outer loop
  vertex -0.1225 -0.00482082 0.00574533
  vertex -0.1225 -0.0064951 0.00375
  vertex -0.0984999 -0.00649515 0.00375
 endloop
endfacet
facet normal 1 -2E-06 0
 outer loop
  vertex -0.0788998 0.029 -0.03
  vertex -0.0788998 0.029 0.03
  vertex -0.0789 -0.029 -0.03
 endloop
endfacet
facet normal 1 -2E-06 0
 outer loop
  vertex -0.0788998 0.029 0.03
  vertex -0.0789 -0.029 0.03
  vertex -0.0789 -0.029 -0.03
 endloop
endfacet
facet normal 0 0 1
 outer loop
  vertex -0.0487629 0.0736802 0.06
  vertex -0.0628618 0.0628618 0.06
  vertex -0.0207314 0.0773707 0.06
 endloop
endfacet
facet normal 0 0 1
 outer loop
  vertex -0.0628618 0.0628618 0.06
  vertex -0.0661712 0.0585489 0.06
  vertex -0.0207314 0.0773707 0.06
 endloop
endfacet
facet normal 1 2E-06 0
 outer loop
  vertex 0.09 -0.04 -0.04
  vertex 0.0899998 0.04 -0.04
  vertex 0.09 -0.04 0.04
 endloop
endfacet
facet normal 1 2E-06 0
 outer loop
  vertex 0.0899998 0.04 -0.04
  vertex 0.0899998 0.04 0.04
  vertex 0.09 -0.04 0.04
 endloop
endfacet
facet normal 1E-06 -0.766044 -0.642788
 outer loop
  vertex 0.0984999 -0.0151554 -0.00875
  vertex 0.0899999 -0.0151554 -0.00875
  vertex 0.0984999 -0.0112487 -0.0134058
 endloop
endfacet
facet normal 1E-06 -0.766044 -0.642788
 outer loop
  vertex 0.0899999 -0.0151554 -0.00875
  vertex 0.0899999 -0.0112488 -0.0134058
  vertex 0.0984999 -0.0112487 -0.0134058
 endloop
endfacet
facet normal 1E-06 -0.766044 0.642788
 outer loop
  vertex 0.0899999 -0.0112488 0.0134058
  vertex 0.0899999 -0.0151554 0.00875
  vertex 0.0984999 -0.0112487 0.0134058
 endloop
endfacet
facet normal 1E-06 -0.766044 0.642788
 outer loop
  vertex 0.0899999 -0.0151554 0.00875
  vertex 0.0984999 -0.0151554 0.00875
  vertex 0.0984999 -0.0112487 0.0134058
 endloop
endfacet
facet normal 2E-06 -1 0
 outer loop
  vertex 0.0899999 -0.0172341 0.00303885
  vertex 0.0899999 -0.0172341 -0.00303884
  vertex 0.0984999 -0.0172341 0.00303885
 endloop
endfacet
facet normal 2E-06 -1 0
 outer loop
  vertex 0.0899999 -0.0172341 -0.00303884
  vertex 0.0984999 -0.0172341 -0.00303884
  vertex 0.0984999 -0.0172341 0.00303885
 endloop
endfacet
facet normal 2E-06 -0.939693 0.34202
 outer loop
  vertex 0.1225 -0.00738597 0.00130236
  vertex 0.1225 -0.0064951 0.00375
  vertex 0.0984999 -0.00738602 0.00130236
 endloop
endfacet
facet normal 2E-06 -0.939693 0.34202
 outer loop
  vertex 0.1225 -0.0064951 0.00375
  vertex 0.0984999 -0.00649515 0.00375
  vertex 0.0984999 -0.00738602 0.00130236
 endloop
endfacet
facet normal -1E-06 -0.5 0.866025
 outer loop
  vertex -0.0984999 -0.00598531 0.0164446
  vertex -0.0984999 -0.0112487 0.0134058
  vertex -0.0899999 -0.00598533 0.0164446
 endloop
endfacet
facet normal -1E-06 -0.5 0.866025
 outer loop
  vertex -0.0984999 -0.0112487 0.0134058
  vertex -0.0899999 -0.0112488 0.0134058
  vertex -0.0899999 -0.00598533 0.0164446
 endloop
endfacet
facet normal -2E-06 0.939693 0.34202
 outer loop
  vertex 0.0984999 0.0151555 0.00875
  vertex 0.0984999 0.0172342 0.00303885
  vertex 0.0899999 0.0151555 0.00875
 endloop
endfacet
facet normal -2E-06 0.939693 0.34202
 outer loop
  vertex 0.0984999 0.0172342 0.00303885
  vertex 0.0899999 0.0172342 0.00303885
  vertex 0.0899999 0.0151555 0.00875
 endloop
endfacet
facet normal 1E-06 0.766045 -0.642787
 outer loop
  vertex -0.1225 0.00482099 -0.00574534
  vertex -0.1225 0.00649528 -0.00375
  vertex -0.0984999 0.00482095 -0.00574534
 endloop
endfacet
facet normal 1E-06 0.766045 -0.642787
 outer loop
  vertex -0.1225 0.00649528 -0.00375
  vertex -0.0984999 0.00649523 -0.00375
  vertex -0.0984999 0.00482095 -0.00574534
 endloop
endfacet
facet normal -1E-06 0.766045 0.642787
 outer loop
  vertex 0.1225 0.00482099 0.00574534
  vertex 0.1225 0.00649528 0.00375
  vertex 0.0984999 0.00482095 0.00574534
 endloop
endfacet
facet normal -1E-06 0.766045 0.642787
 outer loop
  vertex 0.1225 0.00649528 0.00375
  vertex 0.0984999 0.00649523 0.00375
  vertex 0.0984999 0.00482095 0.00574534
 endloop
endfacet
facet normal -1E-06 0.766044 -0.642788
 outer loop
  vertex 0.0899999 0.0151555 -0.00875
  vertex 0.0984999 0.0151555 -0.00875
  vertex 0.0899999 0.0112488 -0.0134058
 endloop
endfacet
facet normal -1E-06 0.766044 -0.642788
 outer loop
  vertex 0.0984999 0.0151555 -0.00875
  vertex 0.0984999 0.0112488 -0.0134058
  vertex 0.0899999 0.0112488 -0.0134058
 endloop
endfacet
facet normal 0 0 1
 outer loop
  vertex 0.00538982 -0.0881904 0.06
  vertex 0.023009 -0.0858708 0.06
  vertex -0.0207314 -0.0773707 0.06
 endloop
endfacet
facet normal 0 0 1
 outer loop
  vertex 0.023009 -0.0858708 0.06
  vertex 0.0280315 -0.0837904 0.06
  vertex -0.0207314 -0.0773707 0.06
 endloop
endfacet
facet normal 2E-06 -0.939693 -0.34202
 outer loop
  vertex 0.0984999 -0.00649515 -0.00375
  vertex 0.1225 -0.0064951 -0.00375
  vertex 0.0984999 -0.00738602 -0.00130236
 endloop
endfacet
facet normal 2E-06 -0.939693 -0.34202
 outer loop
  vertex 0.1225 -0.0064951 -0.00375
  vertex 0.1225 -0.00738597 -0.00130236
  vertex 0.0984999 -0.00738602 -0.00130236
 endloop
endfacet
facet normal -2E-06 1 0
 outer loop
  vertex 0.0798998 0.029 -0.03
  vertex 0.0788998 0.029 -0.03
  vertex 0.0798998 0.029 0.03
 endloop
endfacet
facet normal -2E-06 1 0
 outer loop
  vertex 0.0788998 0.029 -0.03
  vertex 0.0788998 0.029 0.03
  vertex 0.0798998 0.029 0.03
 endloop
endfacet
facet normal 2E-06 0.939693 -0.34202
 outer loop
  vertex -0.1225 0.00649528 -0.00375
  vertex -0.1225 0.00738614 -0.00130236
  vertex -0.0984999 0.00649523 -0.00375
 endloop
endfacet
facet normal 2E-06 0.939693 -0.34202
 outer loop
  vertex -0.1225 0.00738614 -0.00130236
  vertex -0.0984999 0.0073861 -0.00130236
  vertex -0.0984999 0.00649523 -0.00375
 endloop
endfacet
facet normal -2E-06 -0.939693 -0.34202
 outer loop
  vertex -0.0984999 -0.00649515 -0.00375
  vertex -0.0984999 -0.00738602 -0.00130236
  vertex -0.1225 -0.0064951 -0.00375
 endloop
endfacet
facet normal -2E-06 -0.939693 -0.34202
 outer loop
  vertex -0.0984999 -0.00738602 -0.00130236
  vertex -0.1225 -0.00738597 -0.00130236
  vertex -0.1225 -0.0064951 -0.00375
 endloop
endfacet
facet normal -2E-06 -1 0
 outer loop
  vertex -0.0799 -0.029 -0.03
  vertex -0.0789 -0.029 -0.03
  vertex -0.0799 -0.029 0.03
 endloop
endfacet
facet normal -2E-06 -1 0
 outer loop
  vertex -0.0789 -0.029 -0.03
  vertex -0.0789 -0.029 0.03
  vertex -0.0799 -0.029 0.03
 endloop
endfacet
facet normal 0 0 1
 outer loop
  vertex 0.0176192 0.0865804 0.06
  vertex 0.0566393 0.0566392 0.06
  vertex 0.023009 0.0858708 0.06
 endloop
endfacet
facet normal 0 0 1
 outer loop
  vertex 0.0566393 0.0566392 0.06
  vertex 0.0394275 0.0790701 0.06
  vertex 0.023009 0.0858708 0.06
 endloop
endfacet
facet normal -1 6.66667E-07 -6.66667E-07
 outer loop
  vertex -0.0984999 3.9E-08 0.0175
  vertex -0.0984999 0.00598539 0.0164446
  vertex -0.0984999 -0.00598531 0.0164446
 endloop
endfacet
facet normal -1 1.33333E-06 -1.33333E-06
 outer loop
  vertex -0.0984999 0.00598539 0.0164446
  vertex -0.0984999 -0.0112487 0.0134058
  vertex -0.0984999 -0.00598531 0.0164446
 endloop
endfacet
facet normal 1E-06 0.5 -0.866025
 outer loop
  vertex -0.0984999 0.0112488 -0.0134058
  vertex -0.0899999 0.0112488 -0.0134058
  vertex -0.0984999 0.00598539 -0.0164446
 endloop
endfacet
facet normal 1E-06 0.5 -0.866026
 outer loop
  vertex -0.0899999 0.0112488 -0.0134058
  vertex -0.0899999 0.00598538 -0.0164446
  vertex -0.0984999 0.00598539 -0.0164446
 endloop
endfacet
facet normal 1E-06 0.766044 0.642788
 outer loop
  vertex -0.0899999 0.0151555 0.00875
  vertex -0.0984999 0.0151555 0.00875
  vertex -0.0899999 0.0112488 0.0134058
 endloop
endfacet
facet normal 1E-06 0.766044 0.642788
 outer loop
  vertex -0.0984999 0.0151555 0.00875
  vertex -0.0984999 0.0112488 0.0134058
  vertex -0.0899999 0.0112488 0.0134058
 endloop
endfacet
facet normal -2E-06 -1 0
 outer loop
  vertex -0.0984999 -0.00738602 0.00130236
  vertex -0.1225 -0.00738597 0.00130236
  vertex -0.0984999 -0.00738602 -0.00130236
 endloop
endfacet
facet normal -2E-06 -1 0
 outer loop
  vertex -0.1225 -0.00738597 0.00130236
  vertex -0.1225 -0.00738597 -0.00130236
  vertex -0.0984999 -0.00738602 -0.00130236
 endloop
endfacet
facet normal 1 6.66667E-07 6.66667E-07
 outer loop
  vertex 0.0984999 3.9E-08 -0.0175
  vertex 0.0984999 0.00598539 -0.0164446
  vertex 0.0984999 -0.00598531 -0.0164446
 endloop
endfacet
facet normal 1 1.33333E-06 1.33333E-06
 outer loop
  vertex 0.0984999 0.00598539 -0.0164446
  vertex 0.0984999 -0.0112487 -0.0134058
  vertex 0.0984999 -0.00598531 -0.0164446
 endloop
endfacet
facet normal 0 -0.173648 0.984808
 outer loop
  vertex 0.0984999 -0.00598531 0.0164446
  vertex 0.0984999 3.9E-08 0.0175
  vertex 0.0899999 -0.00598533 0.0164446
 endloop
endfacet
facet normal 0 -0.173648 0.984808
 outer loop
  vertex 0.0984999 3.9E-08 0.0175
  vertex 0.0899999 2.2E-08 0.0175
  vertex 0.0899999 -0.00598533 0.0164446
 endloop
endfacet
facet normal 0 0 1
 outer loop
  vertex 0.0487629 -0.0736802 0.06
  vertex 0.0628618 -0.0628618 0.06
  vertex 0.0207314 -0.0773707 0.06
 endloop
endfacet
facet normal 0 0 1
 outer loop
  vertex 0.0628618 -0.0628618 0.06
  vertex 0.0661712 -0.0585489 0.06
  vertex 0.0207314 -0.0773707 0.06
 endloop
endfacet
facet normal 0 0.173648 0.984808
 outer loop
  vertex 0.1225 8.5E-08 0.0075
  vertex 0.1225 0.00256524 0.0070477
  vertex 0.0984999 3.9E-08 0.0075
 endloop
endfacet
facet normal 0 0.173648 0.984808
 outer loop
  vertex 0.1225 0.00256524 0.0070477
  vertex 0.0984999 0.00256519 0.0070477
  vertex 0.0984999 3.9E-08 0.0075
 endloop
endfacet
facet normal 1 -2E-06 0
 outer loop
  vertex -0.0799 -0.04 0.04
  vertex -0.0799 -0.04 -0.04
  vertex -0.0798998 0.04 0.04
 endloop
endfacet
facet normal 1 -2E-06 0
 outer loop
  vertex -0.0799 -0.04 -0.04
  vertex -0.0798998 0.04 -0.04
  vertex -0.0798998 0.04 0.04
 endloop
endfacet
facet normal -1E-06 0.766044 0.642788
 outer loop
  vertex 0.0899999 0.0151555 0.00875
  vertex 0.0899999 0.0112488 0.0134058
  vertex 0.0984999 0.0151555 0.00875
 endloop
endfacet
facet normal -1E-06 0.766044 0.642788
 outer loop
  vertex 0.0899999 0.0112488 0.0134058
  vertex 0.0984999 0.0112488 0.0134058
  vertex 0.0984999 0.0151555 0.00875
 endloop
endfacet
facet normal 0 0 1
 outer loop
  vertex 0.0585489 0.0661712 0.06
  vertex 0.04445 0.0769897 0.06
  vertex 0.0693686 0.04005 0.06
 endloop
endfacet
facet normal 0 0 1
 outer loop
  vertex 0.04445 0.0769897 0.06
  vertex 0.0394275 0.0790701 0.06
  vertex 0.0693686 0.04005 0.06
 endloop
endfacet
facet normal 2E-06 1 0
 outer loop
  vertex -0.0798998 0.029 0.03
  vertex -0.0788998 0.029 0.03
  vertex -0.0798998 0.029 -0.03
 endloop
endfacet
facet normal 2E-06 1 0
 outer loop
  vertex -0.0788998 0.029 0.03
  vertex -0.0788998 0.029 -0.03
  vertex -0.0798998 0.029 -0.03
 endloop
endfacet
facet normal 0 -0.173648 0.984808
 outer loop
  vertex -0.1225 -0.00256507 0.00704769
  vertex -0.0984999 -0.00256511 0.00704769
  vertex -0.1225 8.5E-08 0.0075
 endloop
endfacet
facet normal 0 -0.173648 0.984808
 outer loop
  vertex -0.0984999 -0.00256511 0.00704769
  vertex -0.0984999 3.9E-08 0.0075
  vertex -0.1225 8.5E-08 0.0075
 endloop
endfacet
facet normal -0.991445 -0.130526 0
 outer loop
  vertex -0.0858708 -0.023009 -0.06
  vertex -0.0858708 -0.023009 0.06
  vertex -0.0889 0 -0.06
 endloop
endfacet
facet normal -0.991445 -0.130526 0
 outer loop
  vertex -0.0858708 -0.023009 0.06
  vertex -0.0889 0 0.06
  vertex -0.0889 0 -0.06
 endloop
endfacet
facet normal 1 -1E-06 -1.33333E-06
 outer loop
  vertex -0.0899999 -0.00598533 -0.0164446
  vertex -0.0899999 0.0172342 -0.00303885
  vertex -0.0899999 0.0172342 0.00303884
 endloop
endfacet
facet normal 0 0 -1
 outer loop
  vertex 0.0759578 -0.0314628 -0.06
  vertex 0.0693686 -0.04005 -0.06
  vertex 0.0773707 -0.0207314 -0.06
 endloop
endfacet
facet normal 0 0 1
 outer loop
  vertex 0.0759578 -0.0314628 0.06
  vertex 0.0566392 -0.0566393 0.06
  vertex 0.0744417 -0.042979 0.06
 endloop
endfacet
facet normal -1 -3E-06 -5E-06
 outer loop
  vertex 0.0899999 0.00598537 -0.0164446
  vertex 0.0899999 -0.0151554 -0.00875
  vertex 0.0899999 0.0112488 -0.0134058
 endloop
endfacet
facet normal -1 0 0
 outer loop
  vertex 0.0984999 0.0073861 -0.00130236
  vertex 0.0984999 3.9E-08 0.0075
  vertex 0.0984999 0.0073861 0.00130236
 endloop
endfacet
facet normal -1 -1.1E-05 -9E-06
 outer loop
  vertex 0.0899999 0.0151555 0.00875
  vertex 0.0899999 0.00598538 0.0164446
  vertex 0.0899999 0.0112488 0.0134058
 endloop
endfacet
facet normal 0 0 1
 outer loop
  vertex 0.0858708 0.023009 0.06
  vertex 0.0858708 -0.023009 0.06
  vertex 0.0889 0 0.06
 endloop
endfacet
facet normal 0 0 1
 outer loop
  vertex 0.0773707 -0.0207314 0.06
  vertex 0.0693686 -0.04005 0.06
  vertex 0.0759578 -0.0314628 0.06
 endloop
endfacet
facet normal 0 0 -1
 outer loop
  vertex 0.0858708 -0.023009 -0.06
  vertex 0.0858708 0.023009 -0.06
  vertex 0.0889 0 -0.06
 endloop
endfacet
facet normal 1 0 0
 outer loop
  vertex -0.0984999 0.00256519 0.00704769
  vertex -0.0984999 -0.00482087 -0.00574534
  vertex -0.0984999 0.00482094 0.00574533
 endloop
endfacet
facet normal 1 -1.1E-05 9E-06
 outer loop
  vertex -0.0899999 0.0151555 -0.00875
  vertex -0.0899999 0.00598538 -0.0164446
  vertex -0.0899999 0.0112488 -0.0134058
 endloop
endfacet
facet normal 1 0 0
 outer loop
  vertex -0.0984999 0.0073861 0.00130236
  vertex -0.0984999 3.9E-08 -0.0075
  vertex -0.0984999 0.0073861 -0.00130236
 endloop
endfacet
facet normal -1 -1E-06 1.33333E-06
 outer loop
  vertex 0.0899999 -0.00598533 0.0164446
  vertex 0.0899999 0.0172342 0.00303885
  vertex 0.0899999 0.0172342 -0.00303884
 endloop
endfacet
facet normal 1 0 0
 outer loop
  vertex 0.1225 0.00482099 0.00574534
  vertex 0.1225 -0.0064951 0.00375
  vertex 0.1225 0.00649528 0.00375
 endloop
endfacet
facet normal 1 -3E-06 5E-06
 outer loop
  vertex -0.0899999 0.00598537 0.0164446
  vertex -0.0899999 -0.0151554 0.00875
  vertex -0.0899999 0.0112488 0.0134058
 endloop
endfacet
facet normal 0 0 -1
 outer loop
  vertex 0.0744417 -0.042979 -0.06
  vertex 0.0566393 -0.0566393 -0.06
  vertex 0.0759578 -0.0314628 -0.06
 endloop
endfacet
facet normal -1 0 0
 outer loop
  vertex 0.0984999 0.00256519 -0.00704769
  vertex 0.0984999 -0.00482087 0.00574534
  vertex 0.0984999 0.00482094 -0.00574533
 endloop
endfacet
endsolid TR600_CYL_2
